<svg width="30" height="30" viewBox="0 0 30 30" fill="none" xmlns="http://www.w3.org/2000/svg">
<path fill-rule="evenodd" clip-rule="evenodd" d="M14.5833 0C22.6363 0 29.1667 6.53037 29.1667 14.5833C29.1667 22.6363 22.6363 29.1667 14.5833 29.1667C6.53037 29.1667 0 22.6363 0 14.5833C0 6.53037 6.53037 0 14.5833 0ZM14.5833 2.91669C8.15069 2.91669 2.91669 8.15063 2.91669 14.5833C2.91669 21.0161 8.15063 26.25 14.5833 26.25C21.0161 26.25 26.25 21.0161 26.25 14.5833C26.25 8.15063 21.0161 2.91669 14.5833 2.91669ZM17.9273 9.17731L19.9894 11.2394L16.6454 14.5833L19.9894 17.9273L17.9273 19.9894L14.5833 16.6454L11.2394 19.9894L9.17731 17.9273L12.5212 14.5833L9.17731 11.2394L11.2394 9.17731L14.5833 12.5212L17.9273 9.17731Z" fill="#A04040"/>
</svg>
