<svg width="97" height="97" viewBox="0 0 97 97" fill="none" xmlns="http://www.w3.org/2000/svg">
<path fill-rule="evenodd" clip-rule="evenodd" d="M47.3793 0.0988223C46.56 0.319864 45.8286 0.847984 45.4664 1.48019C45.3444 1.69307 45.266 1.7575 45.0235 1.84422C44.4606 2.04561 43.9401 2.64321 43.683 3.38329C43.5007 3.90791 43.4995 4.83546 43.6803 5.47198C43.8901 6.21062 44.162 6.6588 44.8164 7.34387C45.7037 8.27298 45.7536 8.42557 45.6419 9.86757C45.6011 10.3941 45.5818 10.9803 45.5991 11.1701C45.6353 11.5703 45.8416 12.0917 45.9962 12.1745C46.1366 12.2496 46.1325 12.2185 45.9354 11.7104C45.6704 11.0277 45.6684 10.96 45.8779 9.78493C45.9822 9.19962 46.0845 8.74035 46.1051 8.76432C46.1257 8.78834 46.279 9.20887 46.4456 9.69883C46.9941 11.3116 47.5404 12.3637 47.9658 12.6266C48.2137 12.7798 48.5486 12.7786 49.0758 12.6223C49.4647 12.5071 49.4996 12.5052 49.6347 12.5938C49.731 12.6569 49.8101 12.7961 49.8735 13.0143C50.1211 13.8657 49.6934 14.9157 48.7263 15.8311C47.98 16.5374 47.5424 16.733 46.0584 17.0237C44.576 17.314 44.0699 17.6317 43.6481 18.5369C43.3309 19.2176 43.281 20.1434 43.3423 24.2108C43.3607 25.429 43.3468 26.1742 43.2984 26.5672C42.8992 29.8072 41.9384 32.0902 40.2731 33.7553C38.6562 35.3721 36.4777 36.321 33.6879 36.6235C31.597 36.8502 30.8014 36.9619 30.2089 37.1115C29.0846 37.3954 28.4471 37.7134 27.8868 38.27C27.5829 38.5719 27.1434 39.2672 27.2127 39.3365C27.2297 39.3535 27.3163 39.3159 27.4051 39.2528C27.8972 38.9032 28.3856 38.8214 30.038 38.8119C31.6022 38.803 31.524 38.819 32.8331 38.2384C33.5874 37.9038 34.7777 37.5506 36.304 37.2082C38.0013 36.8277 38.2034 36.8075 39.7805 36.8621C40.5551 36.8889 41.7707 36.9112 42.482 36.9116C43.9861 36.9124 44.3937 36.8455 45.1835 36.4682C46.5939 35.7942 47.453 34.0537 47.2518 32.2776C47.1559 31.4312 46.9876 30.886 46.5206 29.909L46.0851 28.9978L46.1525 28.5584C46.1896 28.3167 46.3373 27.7051 46.4807 27.1994C46.6242 26.6936 46.7568 26.1562 46.7754 26.0051C46.794 25.854 46.8285 25.7186 46.852 25.704C46.9104 25.6679 48.0634 26.5495 48.9326 27.2946C49.3254 27.6315 50.0606 28.3088 50.5663 28.7997L51.4856 29.6922L52.085 29.1596C53.3953 27.9954 54.6844 26.5027 55.6926 24.9825C56.1463 24.2983 56.4006 23.8166 57.0815 22.3511C57.7846 20.8375 57.9179 20.5867 57.9344 20.746C57.9451 20.8499 57.9232 21.1288 57.8856 21.3659C57.7193 22.4151 57.214 23.5913 56.0953 25.5327C54.9351 27.5462 54.6403 28.157 54.3587 29.1319C53.9552 30.5284 54.0562 31.6424 54.7358 33.2901C55.4973 35.1367 55.6452 35.5319 55.7815 36.0855C56.5081 39.0349 55.6497 42.0579 53.1935 45.2002C51.2455 47.6924 47.3969 51.1929 43.7178 53.8188C40.0206 56.4576 36.5464 58.3236 33.2061 59.4645C30.2173 60.4854 28.3829 60.6668 27.1415 60.0642C26.2123 59.6132 25.5889 58.4346 25.353 56.6831C25.2504 55.9214 25.2117 51.9466 25.2926 50.4887C25.4217 48.164 25.67 45.9311 26.0195 43.9528C26.2403 42.7029 26.6951 40.8026 26.9607 40.0203C27.0564 39.7383 27.1248 39.4976 27.1126 39.4854C27.0712 39.4441 26.849 39.8017 26.6705 40.1969C25.9793 41.7271 25.1049 44.6968 24.7271 46.7977C23.9448 51.1482 23.793 55.6187 24.3471 57.9954C24.5987 59.0749 25.0966 59.9769 25.793 60.615L26.1649 60.9557L25.8311 61.0034C25.6475 61.0296 24.6308 61.0387 23.5717 61.0237C19.0916 60.96 18.4815 60.9853 17.2856 61.2847C15.9798 61.6118 15.2945 62.0174 13.0245 63.8066C10.9242 65.462 10.059 65.7655 7.93285 65.5922C6.19258 65.4503 5.62688 65.4806 4.68131 65.7663C3.63257 66.083 2.64394 66.7121 1.78625 67.6083C0.958454 68.4734 0.413792 69.4287 0.145427 70.4865C-0.0256856 71.161 -0.049884 72.2787 0.0946159 72.8353C0.311308 73.6699 0.726645 74.2227 1.37793 74.5433C1.73596 74.7195 1.79057 74.7295 2.38983 74.7285C3.00445 74.7274 3.04123 74.7199 3.62682 74.4785C4.31748 74.1939 4.56153 74.1832 5.03015 74.4172C5.6935 74.7484 6.22333 75.5971 6.58866 76.9136C7.19793 79.1093 7.37692 79.5827 7.86795 80.2976C9.34537 82.4485 12.1125 83.7487 16.3295 84.2734C17.3225 84.397 20.3621 84.4481 21.5676 84.3615C25.9546 84.0463 29.6927 83.0312 33.5729 81.1013C37.9331 78.9327 41.6039 76.0515 45.1322 72.0284C49.9082 66.5823 53.929 59.1157 56.3046 51.2806C56.5155 50.5852 56.6998 49.9795 56.7142 49.9347C56.8111 49.6331 56.8453 50.3218 56.868 53.0335C56.8993 56.7753 56.9166 56.9887 57.6882 63.1655C58.4575 69.3236 58.5475 70.4448 58.5458 73.8388C58.5444 76.5958 58.5067 77.1884 58.2242 78.8964C57.7099 82.0067 56.659 84.6701 55.0495 86.9426C54.5123 87.701 54.3037 87.9463 53.4608 88.8105C52.3401 89.9596 51.8669 90.487 51.6976 90.7758C51.6162 90.9147 51.5593 91.0381 51.5711 91.0499C51.6105 91.0893 53.5029 89.281 54.1552 88.5806C55.7517 86.8666 56.9105 85.1534 57.6866 83.3598C59.074 80.1532 59.6867 76.2507 59.5918 71.2237C59.5403 68.495 59.418 66.8039 58.8628 61.1372C58.402 56.4345 58.2953 55.0373 58.24 52.976C58.2193 52.2016 58.2233 51.3869 58.2488 51.1656C58.2745 50.9444 58.3133 50.5564 58.3351 50.3035L58.3747 49.8438L59.7517 52.8324C60.5091 54.4761 61.2903 56.1107 61.4877 56.4649C63.6418 60.3292 66.629 63.8137 70.1002 66.5111C72.939 68.7171 76.3375 70.4272 79.5841 71.2833C81.5397 71.7989 82.9465 71.9948 85.0158 72.0393C87.0618 72.0835 87.5981 72.0288 90.4762 71.4831C92.2568 71.1455 92.933 71.0626 93.9537 71.0567C94.7519 71.052 94.9267 71.0681 95.277 71.1783C96.4553 71.5491 96.7631 72.5758 96.0956 73.9093C95.6152 74.8691 93.9089 76.3425 93.1447 76.4573C92.3426 76.5779 91.9978 75.6981 92.598 75.0625C92.7466 74.9051 92.7479 74.8733 92.6059 74.8733C92.4781 74.8733 92.2458 75.1532 92.1161 75.4636C91.9285 75.9126 92.0633 76.3739 92.4423 76.5798C92.5821 76.6557 92.7605 76.6828 93.1232 76.6832C93.5746 76.6836 93.6499 76.6663 94.0445 76.4713C95.1198 75.9399 96.2875 74.7392 96.8181 73.6191C96.9895 73.2575 97 73.1971 97 72.5743C97 71.9889 96.9839 71.8807 96.859 71.627C96.488 70.8729 95.7152 70.4714 94.356 70.3262C93.4664 70.2313 92.4372 70.3046 89.4416 70.6766C86.5366 71.0374 85.3764 71.0836 83.7226 70.9044C78.9177 70.3837 73.8678 68.0155 69.6692 64.3139C67.7968 62.6632 65.0395 59.528 65.4602 59.528C65.4846 59.528 65.7238 59.7499 65.9918 60.0211C68.1163 62.1714 70.5711 63.8052 72.89 64.6123C75.1003 65.3816 77.066 65.5088 79.5554 65.0438C81.1309 64.7494 81.5817 64.6923 82.3143 64.6939C83.6686 64.697 84.5984 65.0822 85.0182 65.814C85.3724 66.4315 85.1661 67.1176 84.4985 67.543C83.889 67.9313 82.9571 68.1093 81.5384 68.1081C80.0299 68.107 78.583 67.891 76.4516 67.3491C75.6576 67.1472 75.5763 67.1356 75.7044 67.2422C76.2516 67.6978 78.387 68.3833 80.1302 68.663C82.9041 69.1081 84.8557 68.8905 85.7866 68.0326C86.4473 67.4237 86.6127 66.3592 86.2129 65.2905C85.8506 64.3223 84.888 63.6849 83.4424 63.4559C82.5895 63.3208 80.7269 63.379 78.6932 63.6042C76.3511 63.8637 75.5496 63.8391 74.1789 63.4657C70.6956 62.5169 66.5445 59.2184 63.1857 54.7305C61.9631 53.0968 61.0864 51.6793 60.2701 50.0162C59.2092 47.8549 58.8226 46.4861 58.1435 42.4867C57.4633 38.481 57.1097 37.2124 56.1284 35.2556C55.8299 34.6605 55.5983 34.1531 55.6138 34.1281C55.6292 34.1031 55.7649 34.0688 55.9152 34.0518C56.167 34.0234 56.2226 33.9853 56.6207 33.5678C57.2753 32.881 57.5892 32.2853 57.8609 31.2143C57.9986 30.6716 58.0964 29.891 58.2583 28.043C58.3063 27.4955 58.4996 26.0989 58.688 24.9395C59.2871 21.253 59.4178 19.9888 59.363 18.406C59.2986 16.5432 59.0138 16.0981 57.7999 15.9626C57.5154 15.9308 57.0498 15.8784 56.7653 15.8461C56.0099 15.7603 55.5231 15.5161 54.9521 14.9366C54.6303 14.6101 54.4508 14.3671 54.2875 14.037L54.0639 13.5848L54.0479 12.7194C54.0264 11.5553 54.0391 11.5954 53.6929 11.5954C53.3358 11.5954 53.1345 11.5195 52.9049 11.2981C52.8049 11.2016 52.6956 11.1397 52.6622 11.1604C52.5532 11.2277 52.4803 11.6367 52.5188 11.9646C52.5395 12.1409 52.5403 12.2851 52.5206 12.2851C52.5008 12.2851 52.3835 12.0847 52.26 11.8397L52.0355 11.3943L51.988 11.6817C51.9619 11.8397 51.9411 12.4087 51.9418 12.9461C51.9436 14.3734 52.0852 15.1312 52.5966 16.4502C52.7555 16.8601 52.8856 17.2208 52.8856 17.2516C52.8856 17.3509 52.6087 16.936 52.3744 16.4858C51.8673 15.5111 51.6888 14.7 51.6186 13.0505C51.5606 11.6901 51.4722 11.1554 51.2206 10.6432C51.0651 10.3265 50.6229 9.81688 50.3913 9.68728C50.2689 9.61877 50.2737 9.68791 50.4127 9.9943C50.5328 10.2589 50.5631 10.533 50.4781 10.5855C50.4502 10.6028 50.3949 10.5386 50.3553 10.4429C50.1194 9.87355 49.7053 9.59975 48.5747 9.26554C47.6706 8.99829 47.3306 8.86501 47.0946 8.68558C46.8933 8.53253 46.8709 8.56523 46.9613 8.88024C46.9907 8.98272 46.9972 9.06531 46.9757 9.0637C46.9542 9.06209 46.7426 8.8161 46.5055 8.51701C46.2529 8.19844 45.9166 7.8551 45.6933 7.68785C44.9875 7.15916 44.4389 6.45632 44.125 5.67894C43.9606 5.27157 43.9498 5.19841 43.9508 4.49752C43.952 3.59244 44.0434 3.30933 44.5217 2.72959C45.0619 2.07475 45.0395 2.04112 45.0416 3.51174C45.0432 4.7142 45.052 4.81678 45.1994 5.35962C45.7649 7.44204 47.1237 8.73323 49.0456 9.01421C49.5696 9.09088 50.3992 9.05375 50.9942 8.92714C51.2028 8.88277 52.4227 8.41391 53.7053 7.88521L56.0373 6.92403L56.168 6.57287C56.2399 6.37971 56.3094 6.05113 56.3225 5.84262C56.345 5.48175 56.3383 5.45732 56.1822 5.33347C56.0393 5.22013 55.9731 5.20749 55.6686 5.2353C55.4738 5.25312 54.9132 5.40502 54.4025 5.57836C52.3148 6.287 50.8009 6.46195 49.3503 6.16234C49.1068 6.11206 48.8964 6.08205 48.8828 6.09568C48.8692 6.10924 49.1241 6.21798 49.4492 6.33729C49.9792 6.53172 50.1118 6.55695 50.7301 6.58104C51.5979 6.61489 52.0337 6.53632 53.5178 6.07872C55.3037 5.52813 55.837 5.46738 55.9545 5.80107C56.0312 6.01878 55.9546 6.22838 55.6958 6.50919C55.5062 6.71478 55.3771 6.78978 54.9936 6.91685C54.7351 7.00254 53.9676 7.31123 53.2879 7.60285C51.306 8.45316 50.5472 8.65139 49.5065 8.59081C47.5641 8.4777 46.1768 7.26606 45.6396 5.21335C45.3975 4.28861 45.4329 2.22222 45.6921 2.14619C46.2535 1.98141 48.0111 1.94756 48.6496 2.08923C49.5535 2.28981 49.9712 2.57539 50.8943 3.6241C51.289 4.07251 51.5382 4.28338 51.6002 4.22136C51.6184 4.2032 51.5288 4.06389 51.401 3.91187C51.2732 3.7598 50.9599 3.37036 50.7047 3.04644C50.0639 2.23286 49.7058 1.98647 48.8333 1.75916C48.2317 1.60243 47.0323 1.50933 46.4624 1.57513C46.2016 1.60525 45.9882 1.61335 45.9882 1.59324C45.9882 1.51496 46.5335 1.00885 46.7622 0.874824C47.2375 0.596252 47.6419 0.493318 48.3885 0.460788C48.8251 0.441764 49.2625 0.457224 49.5381 0.501363C50.638 0.677576 51.7697 1.19684 52.4613 1.84255C52.8785 2.23211 52.9161 2.29125 53.3354 3.21737C53.4596 3.49151 53.5659 3.63767 53.7009 3.72003C53.9838 3.8925 53.9954 3.8667 53.7839 3.53485C53.6782 3.36892 53.45 2.93569 53.2768 2.57218C52.8007 1.57295 52.303 1.10259 51.15 0.562343C50.2583 0.144571 49.7592 0.0304866 48.7184 0.00663532C47.9388 -0.0111813 47.7348 0.00284232 47.3793 0.0988223ZM56.3917 6.77903C56.3917 6.82869 56.5077 7.03869 56.6495 7.24571C56.7912 7.45279 56.9773 7.82429 57.0628 8.07143C57.1958 8.45546 57.2188 8.6165 57.2211 9.18157C57.2231 9.66291 57.1954 9.93625 57.1192 10.1874C56.9719 10.6722 56.6343 11.3284 56.2849 11.8086C55.8886 12.3536 55.748 12.685 55.7442 13.0832C55.7399 13.5402 55.8413 13.7917 56.1412 14.0681C56.448 14.351 56.9413 14.5863 57.6583 14.792C58.1417 14.9306 58.3961 14.9415 58.3212 14.8203C58.3035 14.7918 57.9979 14.6465 57.6422 14.4974C56.6387 14.077 56.3058 13.8453 56.1631 13.4677C56.0428 13.1495 56.1659 12.8535 56.8626 11.7859C57.3939 10.9717 57.5098 10.6972 57.6026 10.0341C57.7273 9.14255 57.4944 8.12447 57 7.401C56.6942 6.9534 56.3917 6.64414 56.3917 6.77903ZM56.311 7.50049C56.3384 7.65067 56.3595 7.99332 56.3579 8.26201C56.3513 9.38537 55.7591 10.044 54.5929 10.2253C54.1289 10.2975 53.8652 10.2731 52.9472 10.0733C52.5021 9.97643 52.1598 9.97522 52.1772 10.0706C52.2027 10.2102 54.0524 10.7333 54.5206 10.7333C55.3767 10.7333 56.184 10.2127 56.555 9.42152C56.6901 9.13324 56.7078 9.02525 56.7078 8.4919C56.7078 7.95665 56.6903 7.85107 56.5529 7.55796C56.3582 7.14237 56.2405 7.11444 56.311 7.50049ZM55.2673 28.8374C55.2244 29.4538 55.1468 30.1521 55.0948 30.3891C54.9805 30.911 54.7897 31.3781 54.7025 31.3495C54.6674 31.338 54.6045 31.2013 54.5628 31.0456C54.4727 30.7094 54.5443 29.8768 54.7226 29.1882C54.8164 28.826 55.2946 27.6615 55.3326 27.7028C55.3396 27.7104 55.3102 28.221 55.2673 28.8374ZM46.2721 29.6614C46.5442 30.4922 46.6888 32.0232 46.5689 32.803C46.4158 33.7979 46.0542 34.5313 45.4351 35.1019C44.8203 35.6686 44.081 35.9451 43.0281 36.0023C42.4208 36.0353 41.4646 35.954 41.2864 35.8543C41.2325 35.8241 41.6261 35.588 42.4908 35.1318C43.9339 34.3704 44.1228 34.2508 44.5047 33.8569C45.1138 33.2286 45.3903 32.5253 45.7561 30.6731C45.8809 30.0414 45.9979 29.5003 46.0162 29.4708C46.0756 29.3746 46.2112 29.4756 46.2721 29.6614ZM30.814 40.044C31.3659 40.332 32.4047 40.9751 33.5442 41.7346C35.6948 43.1679 35.8594 43.2683 36.7988 43.7186C39.1794 44.8598 42.3494 45.5242 44.9536 45.4278C48.6587 45.2907 51.1989 43.8678 52.4203 41.2452C52.7194 40.6031 52.8103 40.2912 52.7238 40.2047C52.6873 40.1682 52.6504 40.1497 52.6415 40.1634C51.6921 41.6369 50.9016 42.3778 49.5806 43.032C47.5689 44.0283 45.2575 44.2516 42.1946 43.7455C39.526 43.3046 37.1919 42.5076 34.1678 41.0048C32.0273 39.9412 31.4275 39.726 30.2967 39.6157L29.923 39.5793L30.814 40.044ZM29.3185 40.8333C30.1927 41.7872 30.6842 42.8545 30.9669 44.4126C31.0512 44.8775 31.0675 45.4021 31.077 47.9471C31.0881 50.942 31.1118 51.3669 31.3121 52.1714C31.7024 53.7385 32.7004 54.8659 33.9911 55.1976C34.5408 55.3389 35.6503 55.2754 36.5043 55.0536C38.6936 54.4853 41.9018 52.8818 44.9393 50.8381C46.0972 50.059 47.8978 48.6231 49.638 47.0913C50.7372 46.1236 51.7096 45.1022 51.5316 45.1022C51.5124 45.1022 50.38 45.8619 49.0153 46.7902C45.2107 49.3784 42.1609 51.1139 38.7929 52.6071C36.5865 53.5854 35.1264 53.8999 34.1375 53.6097C33.7993 53.5105 33.3916 53.2016 33.1604 52.8696C32.6992 52.2074 32.4904 51.1816 32.3101 48.6943C32.2437 47.7776 32.1374 46.6083 32.0738 46.0959C31.779 43.7176 31.181 42.2832 30.0269 41.1858C29.7233 40.8971 29.0982 40.4469 29.001 40.4469C28.9809 40.4469 29.1238 40.6208 29.3185 40.8333ZM56.5047 43.5246C56.507 44.998 56.4423 45.9454 56.2438 47.3437C55.1505 55.0454 50.9721 63.5882 44.8679 70.6018C43.8701 71.7482 41.623 73.9865 40.5278 74.9251C38.8428 76.3689 36.8783 77.7678 35.2685 78.6701C32.2105 80.3841 28.3192 81.8016 24.7213 82.5121C22.7395 82.9035 21.5529 83.0357 19.6632 83.0754C17.4904 83.121 16.1088 82.9817 14.3957 82.5442C13.4148 82.2937 12.6809 82.0173 11.7678 81.5547C10.3354 80.8291 9.57 80.0875 8.91733 78.7933C8.62259 78.2088 8.47895 77.8313 8.02694 76.453C7.82985 75.8521 7.56482 75.1409 7.43802 74.8725C6.87583 73.6835 6.09665 73.0226 4.9583 72.7693C4.38168 72.6411 3.98468 72.6906 3.26603 72.9803C2.30942 73.3659 1.91978 73.3406 1.69871 72.8786C1.48041 72.4224 1.5441 71.2869 1.84143 70.3323C2.09411 69.5213 2.88541 68.4273 3.55014 67.97C4.52434 67.2998 5.48049 67.1172 8.02539 67.1153C9.9347 67.114 10.6783 66.9869 11.7025 66.487C12.3917 66.1506 12.9181 65.7797 14.1153 64.7868C15.9329 63.2793 16.7062 62.8755 18.3782 62.5609C19.0368 62.4369 19.1832 62.4325 22.7383 62.4287C26.186 62.425 26.4728 62.417 27.3078 62.3003C31.8797 61.6615 36.3049 59.9416 41.1471 56.9217C43.5046 55.4514 46.1749 53.4229 48.4597 51.3668C52.7714 47.4866 54.9422 44.7346 56.0274 41.7729L56.2471 41.1735L56.3749 41.7154C56.4863 42.1878 56.503 42.4199 56.5047 43.5246ZM63.4058 65.6957C63.4024 65.7889 63.5439 66.0043 63.9979 66.5972C64.7527 67.583 65.2751 68.1818 66.2481 69.1764C71.258 74.2975 78.5735 77.9023 85.6893 78.7564C86.2771 78.827 87.0747 78.8551 88.7806 78.8656C90.0452 78.8734 91.1832 78.898 91.3097 78.9203C91.4361 78.9425 91.6689 78.9886 91.827 79.0226C93.2401 79.3265 93.1495 80.4837 91.6571 81.1935C91.466 81.2844 90.6889 81.54 89.9302 81.7615C88.1676 82.2761 87.6618 82.4537 86.8839 82.8308C85.2211 83.6368 83.9751 84.6792 81.969 86.9426C80.0177 89.1439 79.0107 89.9698 77.4649 90.6362C76.3009 91.1379 75.285 91.3181 72.3706 91.5396C70.0617 91.7152 69.0105 91.8698 67.8533 92.2041C66.8559 92.4923 66.1173 92.8728 64.0076 94.1854C62.3099 95.2415 61.2894 95.621 60.1468 95.621C59.0983 95.621 58.5601 95.4649 56.6791 94.6149C54.8598 93.7928 54.2153 93.6095 53.1442 93.6095C52.0051 93.6095 51.2712 93.8399 49.4462 94.7705C47.2409 95.895 46.7256 96.0541 45.4421 96.0067C44.8366 95.9843 44.338 95.9197 43.4276 95.7456C41.2258 95.3248 40.8203 95.3159 38.0849 95.6283C35.6502 95.9064 34.114 95.9122 33.0779 95.6473C31.8989 95.3459 30.9712 94.6939 30.3117 93.7033C30.0792 93.3541 30.0268 93.2122 29.8572 92.4729C29.7517 92.0133 29.6523 91.6241 29.6362 91.608C29.5874 91.5592 29.6056 92.119 29.6665 92.5404C29.8326 93.6892 30.4379 94.6528 31.42 95.3317C32.807 96.2904 34.5235 96.5543 38.0124 96.3453C39.9257 96.2307 41.251 96.2282 41.9647 96.3378C42.265 96.3839 43.0281 96.5409 43.6603 96.6867C44.6333 96.911 44.9335 96.9565 45.6146 96.9831C46.9217 97.0342 47.5173 96.8702 49.6641 95.8678C51.3984 95.058 51.9765 94.867 52.8053 94.8298C53.8649 94.7822 54.3057 94.9134 56.4205 95.9055C58.502 96.8819 58.9014 96.9994 60.1446 97C61.7345 97.0008 62.5439 96.7045 65.0134 95.2179C67.8425 93.5148 68.6169 93.2929 72.8305 92.9776C75.979 92.7419 77.2198 92.4949 78.607 91.8274C80.0133 91.1507 81.072 90.2536 83.1169 88.0059C85.1845 85.7331 86.3405 84.7567 87.861 83.9984C88.4485 83.7054 88.8431 83.5699 90.4001 83.1259C92.1632 82.6232 92.8557 82.3079 93.471 81.7277C93.9029 81.3204 94.1252 80.9018 94.219 80.3195C94.4232 79.0516 93.6453 78.1209 92.0684 77.7465C91.339 77.5732 90.5818 77.5213 88.2633 77.4859C85.1291 77.438 84.0634 77.3503 82.3209 76.9968C79.5628 76.4372 76.9372 75.5169 74.2962 74.1841C71.7525 72.9004 69.793 71.6136 67.5999 69.7866C66.7307 69.0624 64.5505 66.9422 63.7884 66.0799C63.5789 65.8428 63.4067 65.6699 63.4058 65.6957ZM25.526 85.1872C25.4786 85.1987 25.2458 85.2393 25.0087 85.2776C23.6831 85.4914 22.4 86.144 20.0354 87.8072C17.8682 89.3315 16.9021 89.8941 15.9016 90.2146C15.1335 90.4606 14.6782 90.5253 13.9488 90.4921C12.6331 90.4321 11.6143 89.8613 10.9518 88.813C10.774 88.5317 10.6889 88.2808 10.4745 87.4049C10.2272 86.3952 10.2108 86.3512 10.1629 86.569C10.135 86.6955 10.1241 87.0834 10.1385 87.4311C10.186 88.5743 10.5621 89.4086 11.4092 90.2494C11.8315 90.6688 12.0266 90.8149 12.421 91.0075C13.0786 91.3287 13.4707 91.4245 14.2938 91.4648C15.475 91.5228 16.5266 91.2827 17.8613 90.6505C18.6268 90.2879 19.2502 89.9264 20.784 88.9554C22.646 87.7768 23.4694 87.3307 24.3189 87.0405C25.6974 86.5695 27.0492 86.62 28.0358 87.1795C28.7343 87.5756 29.2498 88.2559 30.135 89.9506C30.8547 91.3282 31.1795 91.8669 31.5877 92.3598C32.1658 93.058 32.8126 93.4754 33.7166 93.7335C34.2169 93.8764 34.7216 93.8893 37.7976 93.838C39.3682 93.8118 39.4812 93.8343 40.9523 94.467C42.2283 95.0159 42.5758 95.1083 43.5061 95.1457C44.0374 95.1671 44.2915 95.1566 44.3367 95.1114C44.3852 95.0629 44.3365 95.0461 44.146 95.0453C43.473 95.0427 42.6991 94.7666 41.5624 94.1239C39.4494 92.9291 39.1085 92.8426 36.1594 92.7524C34.3298 92.6965 34.0791 92.6496 33.4762 92.2494C32.8217 91.815 32.4091 91.2199 31.3931 89.2452C30.5393 87.5859 30.2042 87.0669 29.6097 86.4828C28.9549 85.8395 28.3208 85.5084 27.3395 85.2973C26.9614 85.2159 25.7191 85.1405 25.526 85.1872Z" fill="#400000"/>
</svg>
