<svg width="200" height="200" viewBox="0 0 200 200" fill="none" xmlns="http://www.w3.org/2000/svg">
<path d="M163.218 108.9L163 46C163 46 157.018 46 155.978 46H129.978V40C129.978 23.46 116.518 10 99.9781 10C83.4381 10 69.9781 23.46 69.9781 40V46H43.9781C42.9381 46 31 46 29.9781 46V187.82C29.9381 188.38 30.1181 188.94 30.4981 189.34C30.8781 189.76 31.4181 189.98 31.9781 189.98H147.978C171.138 189.98 189.978 171.14 189.978 147.98C189.978 130.2 178.858 115 163.198 108.88L163.218 108.9ZM73.9981 40C73.9981 25.66 85.6581 14 99.9981 14C114.338 14 125.998 25.66 125.998 40V46H73.9981V40ZM34.1781 186V50H69.9981V70C69.9981 71.1 70.8981 72 71.9981 72C73.0981 72 73.9981 71.1 73.9981 70V50H125.998V70C125.998 71.1 126.898 72 127.998 72C129.098 72 129.998 71.1 129.998 70V50H159.098V107.54C155.558 106.56 151.838 106 147.998 106C124.838 106 105.998 124.84 105.998 148C105.998 164.8 115.938 179.28 130.218 186H34.1781ZM147.998 186C127.038 186 109.998 168.96 109.998 148C109.998 127.04 127.038 110 147.998 110C168.958 110 185.998 127.04 185.998 148C185.998 168.96 168.958 186 147.998 186Z" fill="#800000"/>
<path d="M163.458 132.52C162.765 131.827 161.645 131.827 160.952 132.52L147.996 145.485L135.041 132.52C134.348 131.827 133.228 131.827 132.535 132.52C131.842 133.214 131.842 134.334 132.535 135.028L145.491 147.992L132.535 160.957C130.882 162.558 133.441 165.119 135.041 163.465L147.996 150.5L160.952 163.465C162.551 165.119 165.128 162.558 163.458 160.957L150.502 147.992L163.458 135.028C164.151 134.334 164.151 133.214 163.458 132.52Z" fill="#800000"/>
</svg>
