<svg width="28" height="28" viewBox="0 0 28 28" fill="none" xmlns="http://www.w3.org/2000/svg">
<path d="M22.0552 15.4351L15.6911 21.8004C15.2691 22.2222 14.6969 22.4592 14.1003 22.4592C13.5037 22.4592 12.9315 22.2222 12.5096 21.8004L6.14545 15.4363C5.61937 14.9148 5.20147 14.2945 4.91574 13.6111C4.63002 12.9276 4.4821 12.1945 4.48048 11.4537C4.47886 10.713 4.62357 9.97918 4.90629 9.2945C5.18902 8.60982 5.6042 7.98773 6.12799 7.46393C6.65179 6.94014 7.27388 6.52496 7.95857 6.24223C8.64325 5.9595 9.37703 5.8148 10.1178 5.81642C10.8585 5.81804 11.5917 5.96596 12.2751 6.25168C12.9586 6.5374 13.5788 6.9553 14.1003 7.48139C15.1596 6.44849 16.5831 5.87451 18.0626 5.88378C19.5421 5.89305 20.9583 6.48483 22.0046 7.53091C23.0508 8.577 23.6428 9.99317 23.6522 11.4726C23.6617 12.9521 23.0879 14.3757 22.0552 15.4351Z" stroke="#1C4C74" stroke-width="1.35" stroke-linecap="round" stroke-linejoin="round"/>
</svg>
