<svg width="28" height="28" viewBox="0 0 28 28" fill="none" xmlns="http://www.w3.org/2000/svg">
<path d="M10.082 23.4316C10.548 23.4316 10.9258 23.0539 10.9258 22.5879C10.9258 22.1219 10.548 21.7441 10.082 21.7441C9.61604 21.7441 9.23828 22.1219 9.23828 22.5879C9.23828 23.0539 9.61604 23.4316 10.082 23.4316Z" stroke="#1C4C74" stroke-width="0.9" stroke-linecap="round" stroke-linejoin="round"/>
<path d="M21.8945 23.4316C22.3605 23.4316 22.7383 23.0539 22.7383 22.5879C22.7383 22.1219 22.3605 21.7441 21.8945 21.7441C21.4285 21.7441 21.0508 22.1219 21.0508 22.5879C21.0508 23.0539 21.4285 23.4316 21.8945 23.4316Z" stroke="#1C4C74" stroke-width="0.9" stroke-linecap="round" stroke-linejoin="round"/>
<path d="M3.33203 4.86914H6.70703L9.23828 19.2129H22.7383" stroke="#1C4C74" stroke-width="0.9" stroke-linecap="round" stroke-linejoin="round"/>
<path d="M9.23828 15.8379H22.3923C22.4899 15.838 22.5845 15.8042 22.66 15.7424C22.7354 15.6806 22.7872 15.5945 22.8063 15.4988L24.3251 7.90506C24.3373 7.84383 24.3358 7.78064 24.3207 7.72005C24.3056 7.65946 24.2772 7.60299 24.2376 7.55471C24.198 7.50643 24.1481 7.46754 24.0917 7.44085C24.0352 7.41417 23.9735 7.40035 23.9111 7.40039H7.55078" stroke="#1C4C74" stroke-width="0.9" stroke-linecap="round" stroke-linejoin="round"/>
</svg>
