<svg width="44" height="45" viewBox="0 0 44 45" fill="none" xmlns="http://www.w3.org/2000/svg">
<circle cx="22" cy="22.0742" r="22" fill="#F6F6F6"/>
<path d="M15 18.8242H30M18 26.3242H21M24 26.3242H27M17.4 30.0742H27.6C28.4401 30.0742 28.8601 30.0742 29.181 29.8699C29.4632 29.6901 29.6927 29.4033 29.8365 29.0505C30 28.6494 30 28.1243 30 27.0742V18.0742C30 17.0241 30 16.4991 29.8365 16.098C29.6927 15.7452 29.4632 15.4583 29.181 15.2786C28.8601 15.0742 28.4401 15.0742 27.6 15.0742H17.4C16.5599 15.0742 16.1399 15.0742 15.819 15.2786C15.5368 15.4583 15.3073 15.7452 15.1635 16.098C15 16.4991 15 17.0241 15 18.0742V27.0742C15 28.1243 15 28.6494 15.1635 29.0505C15.3073 29.4033 15.5368 29.6901 15.819 29.8699C16.1399 30.0742 16.5599 30.0742 17.4 30.0742Z" stroke="#3C4242" stroke-width="1.1" stroke-linecap="round"/>
</svg>
