<svg width="44" height="45" viewBox="0 0 44 45" fill="none" xmlns="http://www.w3.org/2000/svg">
<circle cx="22" cy="22.0742" r="22" fill="#F6F6F6"/>
<path d="M18.4444 28.2964C18.4444 29.2783 17.6485 30.0742 16.6667 30.0742C15.6848 30.0742 14.8889 29.2783 14.8889 28.2964C14.8889 27.3146 15.6848 26.5187 16.6667 26.5187C17.6485 26.5187 18.4444 27.3146 18.4444 28.2964ZM18.4444 28.2964H25.5556C26.5374 28.2964 27.3333 27.5005 27.3333 26.5187V22.9631M25.5556 15.852C25.5556 16.8338 26.3515 17.6298 27.3333 17.6298C28.3152 17.6298 29.1111 16.8338 29.1111 15.852C29.1111 14.8702 28.3152 14.0742 27.3333 14.0742C26.3515 14.0742 25.5556 14.8702 25.5556 15.852ZM25.5556 15.852H18.4444C17.4626 15.852 16.6667 16.6479 16.6667 17.6298V21.1853M30 24.7409L27.6476 22.214C27.474 22.0276 27.1926 22.0276 27.0191 22.214L24.6667 24.7409M19.3333 19.4076L16.9809 21.9344C16.8074 22.1208 16.526 22.1208 16.3524 21.9344L14 19.4076" stroke="#3C4242" stroke-width="1.1" stroke-linecap="round"/>
</svg>
