<svg width="19" height="13" viewBox="0 0 19 13" fill="none" xmlns="http://www.w3.org/2000/svg">
<path d="M3.552 12.5476C2.90489 12.5476 2.35644 12.3215 1.90667 11.8693C1.4563 11.4172 1.23111 10.8681 1.23111 10.2222H0V1.43644C0 1.02696 0.137185 0.685333 0.411555 0.411555C0.685926 0.137778 1.02756 0.000592593 1.43644 0H13.1964V3.21422H15.248L18.3253 7.35022V10.2222H16.8889C16.8889 10.8681 16.6625 11.4172 16.2098 11.8693C15.757 12.3215 15.2071 12.5473 14.56 12.5467C13.9129 12.5461 13.3647 12.3203 12.9156 11.8693C12.4664 11.4184 12.2412 10.8693 12.24 10.2222H5.88C5.88 10.8717 5.65363 11.4216 5.20089 11.872C4.74815 12.3224 4.19822 12.5476 3.55111 12.5476M3.55467 11.6587C3.95467 11.6587 4.29393 11.5194 4.57244 11.2409C4.85096 10.9624 4.99022 10.6228 4.99022 10.2222C4.99022 9.82163 4.85096 9.48237 4.57244 9.20444C4.29393 8.92652 3.95467 8.78726 3.55467 8.78667C3.15467 8.78607 2.81541 8.92533 2.53689 9.20444C2.25837 9.48355 2.11911 9.82281 2.11911 10.2222C2.11911 10.6216 2.25837 10.9609 2.53689 11.24C2.81541 11.5191 3.15467 11.6593 3.55467 11.6587ZM0.888 9.33333H1.46311C1.58933 8.94104 1.84681 8.60385 2.23556 8.32178C2.6243 8.0397 3.064 7.89807 3.55467 7.89689C4.02281 7.89689 4.45719 8.03556 4.85778 8.31289C5.25778 8.58963 5.52089 8.92978 5.64711 9.33333H12.3076V0.888889H1.43556C1.29867 0.888889 1.17333 0.945778 1.05956 1.05956C0.945185 1.17333 0.888 1.29867 0.888 1.43556V9.33333ZM14.5636 11.6587C14.9636 11.6587 15.3028 11.5194 15.5813 11.2409C15.8599 10.9618 15.9991 10.6222 15.9991 10.2222C15.9991 9.82222 15.8599 9.48296 15.5813 9.20444C15.3028 8.92593 14.9636 8.78667 14.5636 8.78667C14.1636 8.78667 13.8243 8.92593 13.5458 9.20444C13.2673 9.48296 13.128 9.82222 13.128 10.2222C13.128 10.6222 13.2673 10.9615 13.5458 11.24C13.8243 11.5185 14.1636 11.6587 14.5636 11.6587ZM13.1964 7.55556H17.3849L14.7698 4.10311H13.1964V7.55556Z" fill="black"/>
</svg>
