<svg width="24" height="24" viewBox="0 0 24 24" fill="none" xmlns="http://www.w3.org/2000/svg">
<path d="M9.61269 3.18493C8.02119 3.18493 5.58119 4.10343 6.42969 9.79143C6.44303 9.87743 6.45886 9.97026 6.47719 10.0699C6.63219 10.9254 6.87119 12.2499 5.35019 13.3419C6.38469 14.1909 7.85819 15.0394 9.64869 15.4069C9.57784 15.813 9.48909 16.2157 9.38269 16.6139C9.23719 17.1479 8.93219 17.5264 8.38719 17.6879C7.90719 17.8299 7.40419 17.9449 6.88919 18.0629C6.75653 18.0929 6.62319 18.1236 6.48919 18.1549C5.84669 18.3044 5.19169 18.4699 4.61119 18.7039C4.02919 18.9389 3.48819 19.2554 3.09719 19.7274C2.69919 20.2089 2.48619 20.8159 2.50069 21.5749C2.50569 21.8109 2.70769 21.9999 2.95569 21.9999H21.0447C21.2927 21.9999 21.4947 21.8109 21.4997 21.5749C21.5142 20.8159 21.3017 20.2089 20.9032 19.7274C20.5127 19.2554 19.9712 18.9384 19.3897 18.7039C18.8087 18.4694 18.1537 18.3039 17.5107 18.1544L17.1117 18.0629C16.5962 17.9449 16.0932 17.8299 15.6132 17.6879C15.0682 17.5264 14.7632 17.1479 14.6177 16.6139C14.4906 16.1398 14.3894 15.6591 14.3147 15.1739C15.6837 14.7619 17.1387 14.0214 18.6502 12.8389L18.6432 12.8319C17.9337 12.1529 16.6037 10.8799 16.5092 7.85793C16.5092 3.69693 13.8562 0.0399275 9.61269 3.18493Z" stroke="#233650" stroke-linejoin="round"/>
</svg>
