<svg width="24" height="24" viewBox="0 0 24 24" fill="none" xmlns="http://www.w3.org/2000/svg">
<path d="M19.7691 6.18381C18.7208 5.23694 17.3469 4.73325 15.9357 4.77926C14.5245 4.82528 13.1855 5.41677 12.201 6.42926L11.9965 6.63381L11.792 6.42926C10.8076 5.41677 9.46875 4.82528 8.05734 4.77926C6.64592 4.73325 5.27203 5.23694 4.22388 6.18381C3.17388 7.17331 2.56963 8.54541 2.54746 9.98759C2.52615 11.4305 3.08866 12.8196 4.10796 13.8407L11.0352 20.768C11.5671 21.2964 12.4261 21.2964 12.958 20.768L19.8852 13.8407C20.9046 12.8197 21.4671 11.4304 21.4457 9.98759C21.4236 8.54554 20.8191 7.17348 19.7691 6.18381ZM18.9237 12.8794L11.9964 19.8066L5.06912 12.8794C4.31316 12.1149 3.89809 11.0777 3.91856 10.0029C3.93901 8.92814 4.39328 7.90712 5.17821 7.17239C5.90179 6.50336 6.85208 6.13518 7.83741 6.14283C8.96838 6.14539 10.0524 6.59624 10.8509 7.39738L11.5328 8.0792C11.6606 8.20789 11.8353 8.28119 12.0169 8.28119C12.1984 8.28119 12.3731 8.20789 12.501 8.0792L13.1828 7.39738C13.914 6.64483 14.9061 6.20249 15.9535 6.15987C17.0018 6.11811 18.0262 6.48034 18.8145 7.17237C19.596 7.90958 20.0469 8.93231 20.0639 10.007C20.0801 11.0817 19.6616 12.1181 18.9031 12.8791L18.9237 12.8794Z" fill="#233650"/>
</svg>
