<svg width="24" height="24" viewBox="0 0 24 24" fill="none" xmlns="http://www.w3.org/2000/svg">
<path d="M12 0C8.8174 0 5.76516 1.26428 3.51472 3.51472C1.26428 5.76516 0 8.8174 0 12C0.0666667 19.8467 6.03333 24 12 24C17.9667 24 23.94 19.84 24 12C24 8.8174 22.7357 5.76516 20.4853 3.51472C18.2348 1.26428 15.1826 0 12 0ZM5.93333 20.76C6.29524 19.4282 7.08534 18.2525 8.18174 17.4143C9.27813 16.576 10.6199 16.1219 12 16.1219C13.3801 16.1219 14.7219 16.576 15.8183 17.4143C16.9147 18.2525 17.7048 19.4282 18.0667 20.76C16.287 22.0009 14.1696 22.6663 12 22.6663C9.83041 22.6663 7.713 22.0009 5.93333 20.76ZM8.26667 11.06C8.26667 10.3216 8.48562 9.59981 8.89585 8.98587C9.30607 8.37193 9.88914 7.89342 10.5713 7.61085C11.2535 7.32828 12.0041 7.25435 12.7283 7.3984C13.4525 7.54245 14.1178 7.89802 14.6399 8.42014C15.162 8.94225 15.5175 9.60747 15.6616 10.3317C15.8056 11.0559 15.7317 11.8065 15.4492 12.4887C15.1666 13.1709 14.6881 13.7539 14.0741 14.1642C13.4602 14.5744 12.7384 14.7933 12 14.7933C11.0099 14.7933 10.0603 14.4 9.36014 13.6999C8.66 12.9997 8.26667 12.0501 8.26667 11.06ZM19.18 19.8667C18.8071 18.8385 18.2186 17.9021 17.454 17.1202C16.6893 16.3383 15.7662 15.729 14.7467 15.3333C15.6659 14.7403 16.3686 13.8657 16.7495 12.8402C17.1305 11.8147 17.1693 10.6935 16.8602 9.64408C16.5511 8.59471 15.9106 7.67356 15.0346 7.01836C14.1585 6.36316 13.094 6.00909 12 6.00909C10.906 6.00909 9.84147 6.36316 8.96543 7.01836C8.08938 7.67356 7.44893 8.59471 7.13981 9.64408C6.8307 10.6935 6.86952 11.8147 7.25048 12.8402C7.63144 13.8657 8.33407 14.7403 9.25333 15.3333C8.23378 15.729 7.3107 16.3383 6.54604 17.1202C5.78139 17.9021 5.19287 18.8385 4.82 19.8667C3.22827 18.4179 2.11207 16.5214 1.61808 14.4265C1.12408 12.3316 1.2754 10.1363 2.05214 8.12896C2.82889 6.12164 4.19473 4.39627 5.97018 3.17955C7.74563 1.96283 9.84764 1.31169 12 1.31169C14.1524 1.31169 16.2544 1.96283 18.0298 3.17955C19.8053 4.39627 21.1711 6.12164 21.9479 8.12896C22.7246 10.1363 22.8759 12.3316 22.3819 14.4265C21.8879 16.5214 20.7717 18.4179 19.18 19.8667Z" fill="#233650"/>
</svg>
