<svg width="31" height="31" viewBox="0 0 31 31" fill="none" xmlns="http://www.w3.org/2000/svg">
<path d="M12.6612 3.98242C7.9363 3.98242 4.09375 7.82497 4.09375 12.5499C4.09375 17.2748 7.9363 21.1173 12.6612 21.1173C14.8185 21.1173 16.7904 20.3148 18.2981 18.9944L19.5944 20.2918C19.0817 21.1668 19.1964 22.3158 19.9447 23.064L24.1849 27.3053C25.0729 28.1933 26.5287 28.1933 27.4166 27.3053C28.3046 26.4173 28.3046 24.9627 27.4166 24.0747L23.1753 19.8333C22.4269 19.0849 21.2771 18.9698 20.402 19.4831L19.1058 18.1868C20.4261 16.6791 21.2287 14.7072 21.2287 12.5499C21.2287 7.82497 17.3861 3.98242 12.6612 3.98242ZM12.6612 5.12475C16.7688 5.12475 20.0863 8.44233 20.0863 12.5499C20.0863 16.6574 16.7688 19.975 12.6612 19.975C8.55366 19.975 5.23608 16.6574 5.23608 12.5499C5.23608 8.44233 8.55366 5.12475 12.6612 5.12475ZM8.93749 8.35094C8.81829 8.3699 8.70816 8.42613 8.6229 8.51158C7.55192 9.58256 6.94957 11.0353 6.94957 12.5499C6.94957 14.0645 7.55192 15.5172 8.6229 16.5882C8.73001 16.6953 8.87527 16.7554 9.02673 16.7554C9.17819 16.7554 9.32345 16.6953 9.43056 16.5882C9.53765 16.4811 9.59781 16.3358 9.59781 16.1844C9.59781 16.0329 9.53765 15.8876 9.43056 15.7805C8.5735 14.9235 8.0919 13.762 8.0919 12.5499C8.0919 11.3378 8.5735 10.1763 9.43056 9.31924C9.53765 9.21213 9.59781 9.06687 9.59781 8.91541C9.59781 8.76394 9.53765 8.61869 9.43056 8.51158C9.36688 8.44779 9.28901 8.39999 9.20331 8.37207C9.11761 8.34415 9.02652 8.33691 8.93749 8.35094ZM21.56 20.3008C21.8502 20.3008 22.1404 20.4138 22.3677 20.641L26.6079 24.8823C27.0624 25.3368 27.0623 26.0432 26.6079 26.4977C26.1534 26.9521 25.447 26.9521 24.9925 26.4977L20.7523 22.2563C20.2978 21.8018 20.2978 21.0955 20.7523 20.641C20.9796 20.4138 21.2697 20.3008 21.56 20.3008Z" fill="#001635"/>
</svg>
