<svg width="18" height="14" viewBox="0 0 18 14" fill="none" xmlns="http://www.w3.org/2000/svg">
<path d="M10 9.692H13.096C13.454 9.692 13.7583 9.56667 14.009 9.316C14.2597 9.066 14.385 8.762 14.385 8.404V5.596C14.385 5.23867 14.2597 4.93467 14.009 4.684C13.7583 4.43333 13.454 4.308 13.096 4.308H10V9.692ZM10.885 8.808V5.192H13.096C13.204 5.192 13.2983 5.23267 13.379 5.314C13.4597 5.394 13.5 5.488 13.5 5.596V8.404C13.5 8.512 13.4597 8.60633 13.379 8.687C13.2983 8.76767 13.204 8.80767 13.096 8.807L10.885 8.808ZM6.846 9.692C7.06533 9.692 7.24867 9.61867 7.396 9.472C7.54267 9.32533 7.616 9.14233 7.616 8.923V7.577C7.616 7.409 7.56167 7.271 7.453 7.163C7.34433 7.055 7.206 7.00067 7.038 7C7.206 7 7.34433 6.946 7.453 6.838C7.56167 6.73 7.61567 6.59167 7.615 6.423V5.077C7.615 4.85767 7.54167 4.67467 7.395 4.528C7.24833 4.38133 7.06533 4.308 6.846 4.308H4.173C4.04633 4.308 3.941 4.35 3.857 4.434C3.773 4.518 3.731 4.62333 3.731 4.75C3.731 4.87667 3.773 4.982 3.857 5.066C3.941 5.15 4.04633 5.192 4.173 5.192H6.731V6.558H5.173C5.04633 6.558 4.941 6.6 4.857 6.684C4.773 6.768 4.73067 6.87333 4.73 7C4.72933 7.12667 4.77133 7.232 4.856 7.316C4.94067 7.4 5.046 7.442 5.172 7.442H6.73V8.808H4.173C4.04633 8.808 3.941 8.85 3.857 8.934C3.773 9.018 3.731 9.12333 3.731 9.25C3.731 9.37667 3.773 9.482 3.857 9.566C3.941 9.65 4.04633 9.692 4.173 9.692H6.846ZM1.616 14C1.15533 14 0.771 13.846 0.463 13.538C0.155 13.23 0.000666667 12.8453 0 12.384V1.616C0 1.15533 0.154333 0.771 0.463 0.463C0.771667 0.155 1.15567 0.000666667 1.615 0H16.385C16.845 0 17.229 0.154333 17.537 0.463C17.845 0.771667 17.9993 1.156 18 1.616V12.385C18 12.845 17.8457 13.2293 17.537 13.538C17.2283 13.8467 16.8443 14.0007 16.385 14H1.616ZM1.616 13H16.385C16.5383 13 16.6793 12.936 16.808 12.808C16.9367 12.68 17.0007 12.5387 17 12.384V1.616C17 1.462 16.936 1.32067 16.808 1.192C16.68 1.06333 16.539 0.999333 16.385 1H1.615C1.46167 1 1.32067 1.064 1.192 1.192C1.06333 1.32 0.999333 1.46133 1 1.616V12.385C1 12.5383 1.064 12.6793 1.192 12.808C1.32 12.9367 1.461 13.0007 1.615 13" fill="#233650"/>
</svg>
