<svg width="24" height="24" viewBox="0 0 24 24" fill="none" xmlns="http://www.w3.org/2000/svg">
<path d="M7.77 13.808V12.384H10C10.2193 12.384 10.4023 12.3107 10.549 12.164C10.6957 12.0173 10.769 11.8343 10.769 11.615V10.077C10.769 9.85767 10.6957 9.67467 10.549 9.528C10.4023 9.38133 10.2193 9.308 10 9.308H7.327C7.20033 9.308 7.095 9.35 7.011 9.434C6.927 9.51733 6.885 9.62267 6.885 9.75C6.885 9.87733 6.927 9.98267 7.011 10.066C7.095 10.1493 7.20033 10.1913 7.327 10.192H9.885V11.615H7.653C7.43367 11.615 7.25033 11.6883 7.103 11.835C6.95633 11.9817 6.883 12.165 6.883 12.385V14.25C6.883 14.3767 6.925 14.482 7.009 14.566C7.09367 14.65 7.19933 14.692 7.326 14.692H10.326C10.4527 14.692 10.558 14.65 10.642 14.566C10.726 14.482 10.768 14.3767 10.768 14.25C10.768 14.1233 10.726 14.018 10.642 13.934C10.558 13.85 10.4527 13.808 10.326 13.808H7.77ZM13.289 14.692H16.019C16.359 14.692 16.6457 14.5753 16.879 14.342C17.1137 14.1073 17.231 13.8203 17.231 13.481V10.519C17.231 10.179 17.114 9.89233 16.88 9.659C16.646 9.425 16.3593 9.308 16.02 9.308H13.288C13.1613 9.308 13.056 9.35 12.972 9.434C12.888 9.51733 12.846 9.62267 12.846 9.75V14.25C12.846 14.3767 12.888 14.482 12.972 14.566C13.056 14.65 13.1617 14.692 13.289 14.692ZM13.731 13.808V10.192H16.039C16.1157 10.192 16.186 10.2243 16.25 10.289C16.314 10.353 16.346 10.4233 16.346 10.5V13.5C16.346 13.5773 16.314 13.648 16.25 13.712C16.186 13.776 16.1153 13.808 16.038 13.808H13.731ZM5.616 20C5.15533 20 4.771 19.846 4.463 19.538C4.155 19.23 4.00067 18.8453 4 18.384V5.616C4 5.15533 4.15433 4.771 4.463 4.463C4.77167 4.155 5.156 4.00067 5.616 4H18.385C18.845 4 19.2293 4.15433 19.538 4.463C19.8467 4.77167 20.0007 5.156 20 5.616V18.385C20 18.845 19.846 19.2293 19.538 19.538C19.23 19.8467 18.8453 20.0007 18.384 20H5.616ZM5.616 19H18.385C18.5383 19 18.6793 18.936 18.808 18.808C18.9367 18.68 19.0007 18.5387 19 18.384V5.616C19 5.462 18.936 5.32067 18.808 5.192C18.68 5.06333 18.5387 4.99933 18.384 5H5.616C5.462 5 5.32067 5.064 5.192 5.192C5.06333 5.32 4.99933 5.46133 5 5.616V18.385C5 18.5383 5.064 18.6793 5.192 18.808C5.32 18.9367 5.461 19.0007 5.615 19" fill="#233650"/>
</svg>
