<svg width="134" height="167" viewBox="0 0 134 167" fill="none" xmlns="http://www.w3.org/2000/svg">
<path fill-rule="evenodd" clip-rule="evenodd" d="M33.3333 41.6667V33.3333C33.3333 24.4928 36.8452 16.0143 43.0964 9.76311C49.3476 3.5119 57.8261 0 66.6667 0C75.5072 0 83.9857 3.5119 90.2369 9.76311C96.4881 16.0143 100 24.4928 100 33.3333V41.6667H125C129.6 41.6667 133.333 45.4083 133.333 50.0583V150.067C133.333 159.233 125.875 166.667 116.717 166.667H16.6167C12.2125 166.667 7.98855 164.918 4.8728 161.806C1.75705 158.693 0.00441738 154.471 0 150.067V50.0667C0 45.4167 3.70833 41.6667 8.33333 41.6667H33.3333ZM43.3333 41.6667H90V33.3333C90 27.1449 87.5417 21.21 83.1658 16.8342C78.79 12.4583 72.855 10 66.6667 10C60.4783 10 54.5434 12.4583 50.1675 16.8342C45.7917 21.21 43.3333 27.1449 43.3333 33.3333V41.6667ZM33.3333 51.6667H10V150.067C10 153.7 12.9667 156.667 16.6167 156.667H116.717C118.469 156.667 120.149 155.972 121.389 154.735C122.63 153.497 123.329 151.819 123.333 150.067V51.6667H100V75H90V51.6667H43.3333V75H33.3333V51.6667Z" fill="#800000"/>
</svg>
