<svg width="137" height="137" viewBox="0 0 137 137" fill="none" xmlns="http://www.w3.org/2000/svg">
<path fill-rule="evenodd" clip-rule="evenodd" d="M66.9171 0.139574C65.76 0.451766 64.727 1.19767 64.2154 2.09057C64.0432 2.39124 63.9324 2.48224 63.5899 2.60473C62.7949 2.88916 62.0598 3.7332 61.6966 4.77847C61.4391 5.51941 61.4374 6.82947 61.6927 7.72846C61.9891 8.7717 62.3732 9.40469 63.2974 10.3723C64.5506 11.6845 64.6211 11.9 64.4633 13.9367C64.4057 14.6804 64.3784 15.5083 64.4028 15.7764C64.454 16.3415 64.7453 17.078 64.9637 17.1949C65.162 17.301 65.1562 17.257 64.8778 16.5394C64.5036 15.5752 64.5008 15.4795 64.7966 13.8199C64.9439 12.9933 65.0884 12.3446 65.1175 12.3785C65.1467 12.4124 65.3631 13.0064 65.5984 13.6984C66.3731 15.9762 67.1447 17.4622 67.7455 17.8335C68.0957 18.0499 68.5686 18.0481 69.3132 17.8274C69.8625 17.6646 69.9119 17.662 70.1026 17.7871C70.2387 17.8762 70.3504 18.0728 70.4399 18.381C70.7896 19.5836 70.1856 21.0664 68.8196 22.3595C67.7656 23.357 67.1476 23.6332 65.0515 24.0438C62.9579 24.4538 62.2431 24.9025 61.6473 26.1809C61.1992 27.1424 61.1288 28.45 61.2154 34.1946C61.2414 35.9152 61.2217 36.9676 61.1534 37.5227C60.5896 42.0989 59.2326 45.3233 56.8806 47.6751C54.5969 49.9585 51.52 51.2987 47.5798 51.726C44.6268 52.0462 43.503 52.2039 42.6662 52.4152C41.0782 52.8162 40.1779 53.2654 39.3866 54.0515C38.9573 54.4779 38.3366 55.4599 38.4345 55.5578C38.4585 55.5818 38.5808 55.5286 38.7061 55.4395C39.4012 54.9457 40.091 54.8302 42.4248 54.8168C44.634 54.8042 44.5236 54.8268 46.3725 54.0068C47.4379 53.5342 49.1189 53.0353 51.2748 52.5519C53.672 52.0143 53.9573 51.9859 56.1849 52.063C57.2788 52.1009 58.9958 52.1324 60.0004 52.1329C62.1247 52.1341 62.7004 52.0396 63.8159 51.5066C65.8079 50.5548 67.0213 48.0965 66.7371 45.588C66.6016 44.3926 66.3639 43.6226 65.7043 42.2426L65.0893 40.9556L65.1845 40.335C65.2368 39.9937 65.4455 39.1299 65.648 38.4156C65.8506 37.7013 66.0379 36.9422 66.0642 36.7289C66.0905 36.5155 66.1392 36.3242 66.1724 36.3036C66.2548 36.2527 67.8834 37.4977 69.1109 38.5501C69.6658 39.026 70.7042 39.9825 71.4183 40.6758L72.7167 41.9363L73.5633 41.1842C75.4139 39.5399 77.2347 37.4317 78.6586 35.2845C79.2995 34.3181 79.6585 33.6378 80.6202 31.568C81.6134 29.4303 81.8016 29.0761 81.8248 29.3011C81.84 29.4478 81.809 29.8417 81.7559 30.1765C81.5211 31.6585 80.8074 33.3197 79.2274 36.0616C77.5887 38.9055 77.1724 39.7681 76.7746 41.145C76.2048 43.1174 76.3474 44.6909 77.3072 47.018C78.3828 49.6261 78.5917 50.1843 78.7842 50.9661C79.8103 55.1317 78.5981 59.4014 75.129 63.8395C72.3776 67.3594 66.9419 72.3034 61.7458 76.0121C56.524 79.7391 51.617 82.3745 46.8994 83.986C42.678 85.4279 40.0872 85.684 38.3338 84.8329C37.0215 84.196 36.141 82.5313 35.8079 80.0575C35.663 78.9817 35.6083 73.3679 35.7226 71.3088C35.9048 68.0254 36.2556 64.8718 36.7492 62.0776C37.0611 60.3124 37.7034 57.6284 38.0785 56.5236C38.2137 56.1253 38.3103 55.7853 38.2931 55.768C38.2346 55.7097 37.9208 56.2147 37.6686 56.773C36.6924 58.9341 35.4575 63.1284 34.9239 66.0957C33.8189 72.2403 33.6046 78.5543 34.3871 81.9111C34.7425 83.4357 35.4457 84.7096 36.4293 85.6108L36.9546 86.0921L36.4831 86.1594C36.2238 86.1964 34.7878 86.2093 33.292 86.188C26.9644 86.0981 26.1027 86.1339 24.4137 86.5568C22.5694 87.0187 21.6015 87.5915 18.3954 90.1186C15.4291 92.4566 14.2071 92.8852 11.2041 92.6405C8.74622 92.4402 7.94725 92.4829 6.61175 92.8864C5.13053 93.3337 3.73423 94.2223 2.52285 95.4881C1.35369 96.7098 0.584428 98.0592 0.205397 99.5531C-0.0362776 100.506 -0.0704548 102.084 0.133633 102.87C0.439683 104.049 1.02629 104.83 1.94615 105.283C2.45182 105.532 2.52894 105.546 3.37533 105.544C4.24339 105.543 4.29535 105.532 5.12241 105.191C6.09788 104.789 6.44257 104.774 7.10443 105.105C8.04134 105.573 8.78966 106.771 9.30564 108.631C10.1662 111.732 10.4189 112.4 11.1125 113.41C13.1991 116.448 17.1073 118.284 23.0633 119.025C24.4658 119.2 28.7588 119.272 30.4614 119.15C36.6575 118.705 41.9372 117.271 47.4174 114.545C53.5757 111.482 58.7602 107.413 63.7434 101.731C70.489 94.039 76.1678 83.4932 79.523 72.4272C79.8209 71.445 80.0812 70.5896 80.1015 70.5264C80.2383 70.1003 80.2866 71.0731 80.3187 74.903C80.3629 80.1878 80.3874 80.4892 81.4771 89.2131C82.5637 97.9106 82.6909 99.4942 82.6883 104.288C82.6864 108.182 82.6331 109.019 82.2342 111.431C81.5078 115.824 80.0236 119.586 77.7503 122.795C76.9916 123.866 76.6969 124.213 75.5065 125.433C73.9236 127.056 73.2553 127.801 73.0162 128.209C72.9012 128.405 72.8209 128.58 72.8376 128.596C72.8932 128.652 75.5659 126.098 76.4873 125.109C78.7421 122.688 80.3787 120.268 81.4749 117.735C83.4345 113.206 84.2998 107.694 84.1657 100.594C84.0929 96.7403 83.9203 94.352 83.1361 86.3484C82.4852 79.7064 82.3346 77.7331 82.2566 74.8218C82.2272 73.728 82.2329 72.5774 82.269 72.2649C82.3052 71.9524 82.36 71.4044 82.3907 71.0473L82.4468 70.3979L84.3916 74.6189C85.4613 76.9405 86.5646 79.2492 86.8434 79.7494C89.8859 85.2072 94.1049 90.1287 99.0076 93.9384C103.017 97.0541 107.817 99.4693 112.402 100.678C115.164 101.407 117.151 101.683 120.074 101.746C122.964 101.809 123.721 101.731 127.786 100.961C130.301 100.484 131.256 100.367 132.697 100.358C133.825 100.352 134.072 100.375 134.566 100.53C136.231 101.054 136.665 102.504 135.723 104.387C135.044 105.743 132.634 107.824 131.555 107.986C130.422 108.156 129.935 106.914 130.783 106.016C130.993 105.794 130.995 105.749 130.794 105.749C130.613 105.749 130.285 106.144 130.102 106.583C129.837 107.217 130.028 107.868 130.563 108.159C130.76 108.266 131.012 108.305 131.525 108.305C132.162 108.306 132.268 108.281 132.826 108.006C134.344 107.255 135.994 105.56 136.743 103.977C136.985 103.467 137 103.382 137 102.502C137 101.675 136.977 101.522 136.801 101.164C136.277 100.099 135.185 99.5318 133.266 99.3268C132.009 99.1927 130.556 99.2962 126.325 99.8217C122.222 100.331 120.583 100.396 118.247 100.143C111.461 99.4079 104.329 96.0632 98.3987 90.8351C95.7542 88.5037 91.8599 84.0756 92.454 84.0756C92.4885 84.0756 92.8264 84.3891 93.2049 84.7721C96.2055 87.8091 99.6726 90.1167 102.948 91.2566C106.07 92.3431 108.846 92.5228 112.362 91.866C114.587 91.4502 115.224 91.3695 116.258 91.3718C118.171 91.3762 119.484 91.9203 120.077 92.9538C120.577 93.8259 120.286 94.795 119.343 95.3958C118.482 95.9443 117.166 96.1956 115.162 96.194C113.032 96.1923 110.988 95.8874 107.978 95.122C106.857 94.8368 106.742 94.8204 106.923 94.971C107.696 95.6144 110.712 96.5826 113.174 96.9777C117.091 97.6063 119.848 97.299 121.163 96.0873C122.096 95.2272 122.329 93.7238 121.765 92.2144C121.253 90.847 119.893 89.9467 117.852 89.6233C116.647 89.4325 114.016 89.5146 111.144 89.8328C107.836 90.1992 106.704 90.1646 104.768 89.6372C99.8484 88.297 93.9855 83.6383 89.2416 77.2997C87.5149 74.9925 86.2767 72.9904 85.1237 70.6414C83.6253 67.5889 83.0793 65.6557 82.1202 60.007C81.1595 54.3494 80.6601 52.5577 79.2741 49.794C78.8525 48.9534 78.5254 48.2369 78.5473 48.2015C78.5691 48.1662 78.7607 48.1178 78.973 48.0938C79.3287 48.0537 79.4072 47.9999 79.9694 47.4102C80.8939 46.4402 81.3373 45.5988 81.7211 44.0862C81.9156 43.3197 82.0537 42.2171 82.2823 39.6072C82.3501 38.8339 82.6232 36.8614 82.8893 35.2238C83.7354 30.0172 83.9199 28.2315 83.8427 25.9961C83.7516 23.3652 83.3494 22.7364 81.635 22.5451C81.2331 22.5002 80.5756 22.4262 80.1737 22.3806C79.1068 22.2594 78.4192 21.9145 77.6127 21.0961C77.1583 20.6349 76.9047 20.2917 76.6741 19.8255L76.3582 19.1867L76.3357 17.9645C76.3054 16.3203 76.3232 16.3771 75.8343 16.3771C75.3299 16.3771 75.0456 16.2698 74.7213 15.9571C74.5801 15.8209 74.4258 15.7334 74.3786 15.7626C74.2246 15.8577 74.1216 16.4354 74.1761 16.8984C74.2053 17.1474 74.2065 17.3512 74.1785 17.3512C74.1506 17.3512 73.985 17.0681 73.8105 16.7221L73.4934 16.093L73.4263 16.4988C73.3895 16.7221 73.3601 17.5257 73.361 18.2846C73.3636 20.3006 73.5637 21.3708 74.2859 23.2338C74.5104 23.8128 74.694 24.3221 74.694 24.3657C74.694 24.5058 74.303 23.9199 73.9721 23.284C73.2558 21.9074 73.0038 20.7618 72.9046 18.4321C72.8227 16.5108 72.6979 15.7555 72.3426 15.0321C72.1229 14.5848 71.4984 13.8651 71.1712 13.682C70.9983 13.5853 71.0051 13.6829 71.2015 14.1157C71.3711 14.4894 71.4139 14.8765 71.2939 14.9507C71.2544 14.9751 71.1763 14.8845 71.1203 14.7493C70.7871 13.9451 70.2024 13.5584 68.6055 13.0864C67.3286 12.7089 66.8484 12.5207 66.5151 12.2673C66.2308 12.0511 66.1992 12.0973 66.3268 12.5422C66.3683 12.6869 66.3774 12.8036 66.3471 12.8013C66.3167 12.799 66.0179 12.4516 65.683 12.0292C65.3263 11.5792 64.8513 11.0943 64.5359 10.8581C63.5391 10.1114 62.7642 9.11872 62.3209 8.02077C62.0887 7.44541 62.0734 7.34208 62.0748 6.35217C62.0765 5.07385 62.2056 4.674 62.8811 3.8552C63.6441 2.93031 63.6125 2.88282 63.6154 4.95989C63.6178 6.65819 63.6302 6.80309 63.8383 7.56977C64.637 10.5109 66.5562 12.3346 69.2705 12.7314C70.0107 12.8397 71.1824 12.7873 72.0228 12.6084C72.3173 12.5458 74.0404 11.8836 75.8518 11.1368L79.1455 9.77931L79.3301 9.28334C79.4316 9.01051 79.5298 8.54645 79.5482 8.25195C79.5801 7.74226 79.5706 7.70777 79.3501 7.53284C79.1482 7.37276 79.0548 7.3549 78.6247 7.39419C78.3497 7.41936 77.5578 7.6339 76.8365 7.87872C73.8879 8.87958 71.7498 9.12667 69.701 8.70352C69.357 8.63249 69.0599 8.59012 69.0406 8.60936C69.0214 8.62851 69.3814 8.78209 69.8407 8.95061C70.5891 9.22522 70.7765 9.26085 71.6498 9.29487C72.8754 9.34268 73.4909 9.23171 75.587 8.58541C78.1094 7.80777 78.8626 7.72197 79.0286 8.19326C79.1368 8.50075 79.0287 8.79679 78.6631 9.1934C78.3954 9.48376 78.213 9.58969 77.6713 9.76916C77.3063 9.89019 76.2223 10.3262 75.2623 10.738C72.4631 11.939 71.3914 12.219 69.9216 12.1334C67.1781 11.9737 65.2187 10.2624 64.46 7.36318C64.1182 6.0571 64.1682 3.1386 64.5341 3.03121C65.3271 2.79849 67.8095 2.75067 68.7113 2.95077C69.988 3.23406 70.5779 3.63741 71.8817 5.11858C72.4392 5.7519 72.7911 6.04972 72.8787 5.96213C72.9044 5.93648 72.7778 5.73972 72.5972 5.52501C72.4168 5.31023 71.9742 4.7602 71.6139 4.30271C70.7089 3.15362 70.203 2.80563 68.9708 2.48459C68.121 2.26323 66.427 2.13173 65.6221 2.22467C65.2538 2.26721 64.9524 2.27865 64.9524 2.25024C64.9524 2.13968 65.7225 1.42487 66.0455 1.23558C66.7169 0.84213 67.288 0.696747 68.3426 0.650803C68.9591 0.623935 69.577 0.64577 69.9662 0.708111C71.5196 0.956989 73.1181 1.69039 74.0948 2.60237C74.6841 3.15256 74.7372 3.23609 75.3294 4.54412C75.5048 4.93131 75.6549 5.13774 75.8457 5.25406C76.2452 5.49766 76.2615 5.46121 75.9629 4.99252C75.8136 4.75817 75.4912 4.14629 75.2466 3.63287C74.5741 2.22159 73.8712 1.55727 72.2428 0.794236C70.9834 0.204188 70.2785 0.0430584 68.8084 0.00937153C67.7074 -0.0157922 67.4193 0.00401441 66.9171 0.139574ZM79.646 9.57451C79.646 9.64464 79.8099 9.94125 80.0101 10.2336C80.2103 10.5261 80.4731 11.0508 80.5939 11.3998C80.7818 11.9422 80.8142 12.1697 80.8175 12.9678C80.8203 13.6476 80.7811 14.0337 80.6735 14.3883C80.4655 15.0731 79.9886 15.9999 79.4952 16.6781C78.9354 17.4478 78.7368 17.9159 78.7315 18.4784C78.7254 19.1238 78.8687 19.479 79.2922 19.8694C79.7256 20.2689 80.4223 20.6012 81.4349 20.8918C82.1177 21.0876 82.477 21.1029 82.3712 20.9318C82.3462 20.8914 81.9146 20.6862 81.4121 20.4757C79.9949 19.882 79.5247 19.5547 79.3231 19.0214C79.1533 18.572 79.3272 18.154 80.3111 16.6461C81.0615 15.4961 81.2252 15.1084 81.3563 14.1719C81.5324 12.9127 81.2034 11.4748 80.5052 10.453C80.0732 9.82079 79.646 9.38399 79.646 9.57451ZM79.532 10.5935C79.5707 10.8056 79.6005 11.2895 79.5983 11.669C79.5889 13.2556 78.7526 14.1859 77.1054 14.442C76.4501 14.5439 76.0777 14.5094 74.7811 14.2273C74.1524 14.0904 73.669 14.0887 73.6936 14.2234C73.7296 14.4206 76.342 15.1595 77.0034 15.1595C78.2124 15.1595 79.3526 14.4241 79.8766 13.3067C80.0674 12.8995 80.0925 12.747 80.0925 11.9937C80.0925 11.2377 80.0678 11.0886 79.8737 10.6746C79.5987 10.0877 79.4324 10.0482 79.532 10.5935ZM78.058 40.7291C77.9973 41.5996 77.8877 42.5859 77.8144 42.9207C77.6529 43.6578 77.3834 44.3175 77.2602 44.2771C77.2106 44.2609 77.1218 44.0678 77.063 43.848C76.9357 43.3731 77.0368 42.1971 77.2886 41.2246C77.4211 40.713 78.0965 39.0683 78.1502 39.1266C78.16 39.1374 78.1185 39.8585 78.058 40.7291ZM65.3533 41.8929C65.7376 43.0664 65.9419 45.2287 65.7725 46.33C65.5564 47.7352 65.0456 48.771 64.1712 49.5769C63.3029 50.3773 62.2587 50.7678 60.7716 50.8486C59.9139 50.8952 58.5634 50.7804 58.3117 50.6396C58.2356 50.597 58.7914 50.2635 60.0128 49.6192C62.051 48.5438 62.3177 48.3748 62.8571 47.8186C63.7175 46.9312 64.1079 45.9378 64.6247 43.3218C64.8009 42.4296 64.9661 41.6654 64.9919 41.6237C65.0759 41.4879 65.2674 41.6305 65.3533 41.8929ZM43.5207 56.557C44.3003 56.9637 45.7674 57.8721 47.3768 58.9447C50.4143 60.9691 50.6469 61.1109 51.9736 61.7468C55.3358 63.3587 59.813 64.2971 63.4911 64.1609C68.7241 63.9673 72.3118 61.9576 74.037 58.2535C74.4593 57.3466 74.5878 56.9062 74.4655 56.7839C74.414 56.7324 74.3618 56.7062 74.3493 56.7256C73.0085 58.8068 71.892 59.8532 70.0262 60.7772C67.185 62.1843 63.9203 62.4996 59.5945 61.7849C55.8254 61.1622 52.5288 60.0365 48.2575 57.914C45.2344 56.4117 44.3874 56.1078 42.7901 55.9521L42.2625 55.9007L43.5207 56.557ZM41.4086 57.6717C42.6434 59.019 43.3375 60.5265 43.7367 62.727C43.8558 63.3837 43.8788 64.1246 43.8922 67.7192C43.9079 71.949 43.9413 72.5491 44.2243 73.6854C44.7756 75.8988 46.1851 77.491 48.008 77.9595C48.7844 78.1591 50.3514 78.0693 51.5576 77.7562C54.6497 76.9534 59.1809 74.6888 63.4709 71.8023C65.1063 70.7019 67.6495 68.6739 70.1073 66.5103C71.6598 65.1437 73.0332 63.7011 72.7817 63.7011C72.7546 63.7011 71.1553 64.774 69.2278 66.0852C63.8543 69.7406 59.5468 72.1917 54.79 74.3008C51.6737 75.6825 49.6115 76.1266 48.2148 75.7168C47.7372 75.5767 47.1613 75.1404 46.8348 74.6715C46.1835 73.7362 45.8885 72.2874 45.6339 68.7744C45.5401 67.4797 45.3899 65.8282 45.3001 65.1046C44.8837 61.7455 44.0391 59.7196 42.4091 58.1696C41.9803 57.7619 41.0975 57.1261 40.9602 57.1261C40.9318 57.1261 41.1336 57.3716 41.4086 57.6717ZM79.8056 61.4729C79.8089 63.5539 79.7175 64.8919 79.4371 66.8669C77.893 77.7446 71.9915 89.8102 63.3701 99.7159C61.9608 101.335 58.7871 104.496 57.2402 105.822C54.8604 107.861 52.0859 109.837 49.8122 111.111C45.4932 113.532 39.9972 115.534 34.9156 116.538C32.1166 117.091 30.4407 117.277 27.7717 117.333C24.703 117.398 22.7516 117.201 20.3321 116.583C18.9467 116.229 17.9101 115.839 16.6206 115.186C14.5975 114.161 13.5164 113.113 12.5946 111.285C12.1783 110.46 11.9754 109.927 11.337 107.98C11.0587 107.131 10.6843 106.127 10.5052 105.748C9.71122 104.068 8.61074 103.135 7.00296 102.777C6.18856 102.596 5.62784 102.666 4.61284 103.075C3.26176 103.62 2.71143 103.584 2.39921 102.932C2.09089 102.287 2.18084 100.684 2.60079 99.3353C2.95766 98.1898 4.07527 96.6447 5.01412 95.9988C6.39004 95.0522 7.74048 94.7944 11.3348 94.7918C14.0315 94.7898 15.0818 94.6103 16.5283 93.9043C17.5017 93.4292 18.2451 92.9054 19.9361 91.5029C22.5032 89.3738 23.5953 88.8036 25.9569 88.3592C26.887 88.1841 27.0938 88.1778 32.1149 88.1725C36.9843 88.1673 37.3894 88.1559 38.5687 87.9911C45.0259 87.0889 51.276 84.6598 58.115 80.3945C61.4447 78.318 65.2161 75.453 68.4431 72.549C74.5328 67.0687 77.5988 63.1818 79.1315 58.9988L79.4417 58.1523L79.6223 58.9176C79.7797 59.5848 79.8032 59.9127 79.8056 61.4729ZM89.5525 92.7868C89.5477 92.9183 89.7476 93.2226 90.3887 94.0599C91.4548 95.4523 92.1927 96.298 93.5668 97.7027C100.643 104.936 110.975 110.027 121.025 111.233C121.855 111.333 122.982 111.373 125.391 111.388C127.177 111.399 128.785 111.433 128.963 111.465C129.142 111.496 129.471 111.561 129.694 111.609C131.69 112.038 131.562 113.673 129.454 114.675C129.184 114.804 128.086 115.165 127.015 115.478C124.525 116.204 123.811 116.455 122.712 116.988C120.364 118.126 118.604 119.598 115.771 122.795C113.015 125.904 111.592 127.071 109.409 128.012C107.765 128.721 106.33 128.975 102.214 129.288C98.9531 129.536 97.4684 129.754 95.834 130.226C94.4253 130.633 93.3822 131.171 90.4024 133.025C88.0047 134.516 86.5633 135.052 84.9495 135.052C83.4687 135.052 82.7086 134.832 80.0519 133.631C77.4824 132.47 76.5721 132.211 75.0593 132.211C73.4505 132.211 72.4139 132.537 69.8364 133.851C66.7217 135.439 65.9938 135.664 64.1812 135.597C63.3259 135.565 62.6217 135.474 61.3359 135.228C58.2262 134.634 57.6534 134.621 53.7901 135.063C50.3514 135.455 48.1816 135.464 46.7182 135.09C45.0531 134.664 43.7429 133.743 42.8114 132.344C42.483 131.851 42.409 131.65 42.1694 130.606C42.0205 129.957 41.88 129.407 41.8573 129.384C41.7884 129.316 41.8141 130.106 41.9001 130.701C42.1347 132.324 42.9897 133.685 44.3767 134.644C46.3357 135.998 48.76 136.371 53.6876 136.075C56.39 135.913 58.2617 135.91 59.2697 136.065C59.6939 136.13 60.7716 136.352 61.6646 136.557C63.0387 136.874 63.4628 136.939 64.4247 136.976C66.2709 137.048 67.112 136.817 70.1442 135.401C72.5936 134.257 73.4101 133.987 74.5806 133.935C76.0773 133.868 76.6998 134.053 79.6866 135.454C82.6266 136.833 83.1907 136.999 84.9465 137C87.192 137.001 88.3352 136.583 91.8231 134.483C95.8188 132.078 96.9125 131.764 102.864 131.319C107.311 130.986 109.063 130.637 111.022 129.694C113.008 128.739 114.504 127.472 117.392 124.297C120.312 121.087 121.945 119.708 124.092 118.637C124.922 118.223 125.479 118.032 127.678 117.405C130.169 116.695 131.147 116.249 132.016 115.43C132.626 114.855 132.94 114.263 133.072 113.441C133.361 111.65 132.262 110.336 130.035 109.807C129.005 109.562 127.935 109.489 124.661 109.439C120.234 109.371 118.729 109.247 116.268 108.748C112.372 107.958 108.664 106.658 104.934 104.775C101.341 102.962 98.5737 101.145 95.4762 98.5645C94.2485 97.5417 91.1693 94.5472 90.0929 93.3293C89.797 92.9945 89.5538 92.7503 89.5525 92.7868ZM36.0522 120.316C35.9852 120.332 35.6564 120.39 35.3215 120.444C33.4493 120.746 31.6372 121.667 28.2974 124.016C25.2366 126.169 23.8721 126.964 22.459 127.417C21.3741 127.764 20.7311 127.855 19.7009 127.808C17.8427 127.724 16.4037 126.917 15.468 125.437C15.2169 125.04 15.0967 124.685 14.7938 123.448C14.4446 122.022 14.4215 121.96 14.3538 122.268C14.3144 122.446 14.299 122.994 14.3193 123.485C14.3864 125.1 14.9176 126.278 16.114 127.466C16.7105 128.058 16.986 128.264 17.543 128.536C18.4719 128.99 19.0256 129.125 20.1881 129.182C21.8564 129.264 23.3417 128.925 25.2268 128.032C26.308 127.52 27.1884 127.009 29.3548 125.638C31.9845 123.973 33.1475 123.343 34.3474 122.933C36.2943 122.268 38.2035 122.34 39.5969 123.13C40.5836 123.689 41.3115 124.65 42.5618 127.044C43.5782 128.989 44.0371 129.75 44.6135 130.446C45.43 131.432 46.3436 132.022 47.6204 132.387C48.327 132.588 49.0398 132.607 53.3842 132.534C55.6025 132.497 55.7621 132.529 57.8398 133.423C59.642 134.198 60.1328 134.328 61.4468 134.381C62.1972 134.411 62.556 134.396 62.6198 134.333C62.6883 134.264 62.6196 134.24 62.3505 134.239C61.4 134.236 60.3069 133.846 58.7015 132.938C55.7171 131.25 55.2357 131.128 51.0705 131.001C48.4864 130.922 48.1324 130.856 47.2808 130.29C46.3564 129.677 45.7737 128.836 44.3386 126.047C43.1329 123.704 42.6596 122.971 41.8199 122.146C40.8951 121.237 39.9995 120.77 38.6136 120.471C38.0795 120.356 36.3249 120.25 36.0522 120.316Z" fill="#800000"/>
</svg>
