<svg width="80" height="18" viewBox="0 0 80 18" fill="none" xmlns="http://www.w3.org/2000/svg">
<path d="M50.781 7.34262C51.1726 8.0558 51.5576 8.75922 51.9472 9.46037C52.2368 9.98168 52.535 10.499 52.825 11.0202C53.0137 11.3594 53.2001 11.7 53.3754 12.0455C53.4227 12.1386 53.4441 12.2517 53.4444 12.3557C53.4487 14.1306 53.4474 15.9056 53.4474 17.6806C53.4474 17.9169 53.4309 17.9317 53.1761 17.9317C51.9215 17.9317 50.6673 17.9318 49.4127 17.9317C49.1734 17.9317 49.148 17.9088 49.1477 17.6865C49.1477 16.0394 49.1306 14.392 49.1609 12.7454C49.1678 12.3698 49.0257 12.076 48.8604 11.7694C48.6227 11.3281 48.3784 10.8898 48.1377 10.4497C47.8793 9.97745 47.6209 9.50523 47.3648 9.03199C47.0518 8.45389 46.7431 7.87376 46.4288 7.29626C46.1217 6.73259 45.8084 6.17214 45.5013 5.60852C45.1992 5.05341 44.9036 4.49508 44.6015 3.93994C44.1658 3.14009 43.7263 2.34217 43.29 1.54272C43.0401 1.08444 42.7939 0.624252 42.5437 0.166153C42.4865 0.061958 42.5161 0.011365 42.6384 0.00411989C42.6765 0.00187882 42.715 0.0026771 42.7531 0.0026771C43.9969 0.0025543 45.2403 0.0046417 46.4837 6.05673e-06C46.6579 -0.000638636 46.7556 0.050077 46.8394 0.203237C47.4256 1.2761 48.0273 2.34153 48.6194 3.41169C48.907 3.93211 49.1806 4.4595 49.4676 4.98032C49.8283 5.63434 50.1962 6.28474 50.5604 6.93696C50.6337 7.06801 50.7044 7.20024 50.781 7.34262Z" fill="#800000"/>
<path d="M25.862 12.5565C25.6681 12.0558 25.477 11.5668 25.2867 11.0776C25.0871 10.5644 24.8889 10.0507 24.6883 9.53782C24.5512 9.18781 24.4108 8.839 24.2724 8.48958C24.0785 8.00155 23.8834 7.51401 23.6917 7.02527C23.4737 6.46954 23.2589 5.91268 23.0424 5.35647C22.6615 4.37801 22.2826 3.39884 21.8984 2.42152C21.6158 1.70275 21.3269 0.986157 21.0392 0.269198C20.953 0.0543312 20.9853 0.00803608 21.2353 0.00797468C22.4516 0.00775979 23.6679 0.00779077 24.8843 0.00788287C25.1115 0.00791357 25.1483 0.0411611 25.2252 0.241476C25.4711 0.880213 25.7236 1.51677 25.9725 2.15452C26.1711 2.66282 26.3664 3.17209 26.5656 3.68017C26.8004 4.2794 27.0387 4.87746 27.2738 5.47659C27.52 6.10443 27.764 6.73313 28.0099 7.36106C28.2127 7.87875 28.4192 8.39527 28.6208 8.91339C28.8167 9.41717 29.0071 9.92282 29.203 10.4267C29.3408 10.7819 29.4838 11.1353 29.6238 11.4898C29.8208 11.9878 30.018 12.4856 30.2133 12.9841C30.4671 13.6313 30.7193 14.2791 30.9718 14.9267C31.2111 15.5407 31.4488 16.1551 31.6892 16.7687C31.8134 17.0852 31.9397 17.401 32.0686 17.7158C32.1481 17.9098 32.132 17.9373 31.9071 17.9375C30.7788 17.9382 29.6501 17.9377 28.5215 17.9376C28.4557 17.9376 28.39 17.9386 28.3242 17.9375C27.9622 17.9311 27.9944 18.0094 27.8317 17.5862C27.6821 17.1972 27.5246 16.8107 27.3727 16.4226C27.2241 16.044 27.0795 15.6642 26.9309 15.2857C26.6879 14.6678 26.4423 14.0507 26.1994 13.4328C26.0863 13.1452 25.9765 12.8565 25.862 12.5565Z" fill="#800000"/>
<path d="M58.3458 3.1079C58.1873 3.39383 58.0334 3.66918 57.8835 3.94646C57.5613 4.54277 57.2418 5.1404 56.9199 5.73686C56.4475 6.61183 55.9744 7.4864 55.5009 8.36082C55.3579 8.62493 55.2113 8.88735 55.0686 9.15161C55.0153 9.25006 54.9187 9.27042 54.8319 9.23318C54.5264 9.10191 54.1967 8.99504 53.9324 8.80934C53.3491 8.39978 53.0121 7.82867 52.8168 7.1724C52.6876 6.73868 52.6705 6.29682 52.6298 5.85567C52.6232 5.78497 52.6551 5.70404 52.6909 5.63816C53.0404 4.99675 53.3965 4.35851 53.7466 3.71737C54.0195 3.21737 54.2855 2.71405 54.5564 2.21312C54.9183 1.54442 55.2843 0.877751 55.643 0.207517C55.7235 0.0568739 55.8294 -0.00117917 56.0158 1.81111e-05C57.2592 0.00790792 58.5029 0.00314926 59.7463 0.00594293C59.8177 0.00612713 59.8887 0.0364891 59.96 0.0527906C59.937 0.11597 59.9216 0.182619 59.89 0.241747C59.6977 0.6017 59.5011 0.959658 59.3071 1.31884C59.0684 1.76073 58.8304 2.20302 58.5927 2.64541C58.5118 2.79596 58.4322 2.94724 58.3458 3.1079Z" fill="#800000"/>
<path d="M8.13537 17.8736C5.62656 17.8742 3.13392 17.8743 0.641277 17.8761C0.482974 17.8762 0.324639 17.8894 0.166369 17.8968C0.0576114 17.9018 -0.0189592 17.8815 0.00412052 17.7517C0.0174686 17.6767 0.0149364 17.5989 0.0149364 17.5223C0.0153638 11.8185 0.0153643 6.11472 0.0150026 0.410915C0.0150026 0.339416 0.0194083 0.266289 0.00553421 0.196755C-0.0218852 0.0595273 0.0557697 0.0373312 0.173798 0.0440238C0.326545 0.0526811 0.47949 0.0639481 0.632335 0.0640402C3.17975 0.0658208 5.72723 0.0579618 8.27457 0.0731888C8.80458 0.0763816 9.33713 0.138548 9.8556 0.269359C10.0955 0.329899 10.3446 0.358849 10.5847 0.418774C10.8136 0.475906 11.0388 0.548542 11.2611 0.625629C11.509 0.711618 11.7547 0.804331 11.9962 0.905179C12.2241 1.00038 12.4531 1.09727 12.6674 1.21592C13.0654 1.43631 13.4528 1.67307 13.8446 1.90313C13.8631 1.914 13.8839 1.9233 13.8987 1.93773C14.349 2.37551 14.8261 2.79269 15.2398 3.25889C15.5606 3.62044 15.811 4.03823 16.0747 4.44132C16.1926 4.62146 16.2732 4.82423 16.3582 5.02142C16.4862 5.31835 16.6075 5.61791 16.723 5.91926C16.7796 6.06696 16.8268 6.21926 16.8604 6.37288C16.9289 6.68592 16.9881 7.00084 17.0457 7.31585C17.0841 7.52611 17.1326 7.73708 17.1426 7.94915C17.1655 8.43396 17.1696 8.91963 17.1776 9.40499C17.1834 9.758 17.1718 10.1078 17.0624 10.4526C17.0139 10.606 17.0488 10.7815 17.0069 10.9379C16.9069 11.3117 16.7899 11.6819 16.6676 12.05C16.5875 12.291 16.5053 12.5343 16.3901 12.7615C16.1949 13.1464 15.9848 13.5258 15.7593 13.896C15.422 14.4495 14.9722 14.926 14.4926 15.372C14.0714 15.7637 13.6263 16.1353 13.1008 16.4101C12.8257 16.5539 12.5681 16.7295 12.2849 16.8565C11.9191 17.0206 11.5399 17.1615 11.1584 17.2918C10.8126 17.41 10.4605 17.5188 10.1027 17.5982C9.73326 17.6803 9.35429 17.7266 8.97808 17.7797C8.70375 17.8184 8.42716 17.8428 8.13537 17.8736ZM12.7339 7.48936C12.5964 7.07529 12.491 6.64877 12.3133 6.25035C12.1037 5.78068 11.822 5.34484 11.4486 4.96072C11.0663 4.56749 10.6536 4.21095 10.1582 3.95402C9.33598 3.52757 8.45405 3.30565 7.50417 3.31826C6.4856 3.3318 5.46664 3.32109 4.44788 3.32127C4.2019 3.32133 4.19377 3.32981 4.19377 3.56693C4.19384 4.63586 4.19391 5.70482 4.19387 6.77375C4.19384 9.29524 4.19374 11.8167 4.19384 14.3382C4.19387 14.5627 4.21445 14.5873 4.41583 14.589C5.58727 14.5992 6.75881 14.6208 7.93012 14.6132C8.67959 14.6082 9.39108 14.4127 10.0533 14.0915C10.9474 13.6577 11.6175 13.0038 12.0968 12.1789C12.635 11.2523 12.8767 10.2534 12.898 9.20667C12.9096 8.63891 12.8619 8.07321 12.7339 7.48936Z" fill="#800000"/>
<path d="M77.4886 7.51703C77.2036 7.74608 76.8676 7.87168 76.5483 8.02216C76.2327 8.17078 75.897 8.26893 75.5479 8.32735C75.4884 8.3373 75.4361 8.38497 75.3805 8.41524C75.4312 8.45184 75.4759 8.50756 75.5331 8.52192C75.8845 8.61058 76.2452 8.67251 76.5911 8.77685C77.0047 8.90165 77.3975 9.07347 77.7519 9.31833C78.2237 9.64418 78.6334 10.0279 78.9345 10.4942C79.1206 10.7824 79.2541 11.1053 79.3725 11.4251C79.4819 11.7212 79.5894 12.031 79.6098 12.3398C79.6503 12.9435 79.7265 13.5567 79.5181 14.1506C79.3863 14.5263 79.2791 14.917 79.0854 15.2642C78.9069 15.5839 78.6436 15.8671 78.3881 16.1428C78.1498 16.4006 77.8673 16.6183 77.5363 16.778C77.2282 16.9267 76.9419 17.1181 76.6252 17.2472C76.3185 17.3724 75.9871 17.4472 75.6639 17.5352C75.3769 17.6132 75.0902 17.7067 74.7963 17.7438C74.2292 17.8153 73.6574 17.8928 73.087 17.8958C70.1721 17.9107 67.2569 17.9027 64.3421 17.9027C64.0527 17.9027 64.0527 17.9026 64.0527 17.6293C64.0527 11.8529 64.0527 6.07648 64.0527 0.300071C64.0527 0.0366683 64.0531 0.0364841 64.3361 0.0364841C66.988 0.0364534 69.6402 0.0312959 72.2921 0.0415189C72.7379 0.0432381 73.183 0.113448 73.6288 0.148415C73.8356 0.164655 74.0467 0.154954 74.2502 0.18768C74.5908 0.242509 74.9275 0.319903 75.2648 0.391679C75.4759 0.436531 75.6915 0.472327 75.8937 0.541554C76.1173 0.618089 76.3389 0.710986 76.5411 0.827245C76.9346 1.05335 77.3433 1.26947 77.6905 1.54906C77.9785 1.78056 78.2056 2.08544 78.4253 2.38031C78.5814 2.59051 78.708 2.82914 78.7971 3.07136C78.8898 3.32368 78.9237 3.59516 78.9789 3.85908C78.9901 3.91339 78.9671 3.97552 78.9842 4.02698C79.1045 4.38843 79.0098 4.75026 78.97 5.10653C78.9411 5.36422 78.828 5.61421 78.7468 5.8661C78.711 5.97775 78.6725 6.09094 78.6163 6.19431C78.3845 6.61852 78.1057 7.01193 77.7237 7.33394C77.651 7.39528 77.5728 7.45124 77.4886 7.51703ZM68.2298 12.147C68.2298 12.9398 68.2294 13.7325 68.2294 14.5253C68.2294 14.7273 68.2449 14.7413 68.4652 14.7413C69.632 14.7414 70.7988 14.7351 71.9653 14.7437C72.5574 14.7481 73.1393 14.6898 73.69 14.4911C73.9859 14.3844 74.2903 14.245 74.5228 14.0496C75.0896 13.5734 75.3128 12.9562 75.2323 12.2424C75.1425 11.443 74.6737 10.9017 73.9119 10.5832C73.4253 10.3797 72.9006 10.2911 72.3624 10.2915C71.0588 10.2926 69.7553 10.2909 68.4517 10.2908C68.2495 10.2908 68.2298 10.31 68.2294 10.5052C68.2291 11.0422 68.2298 11.5792 68.2298 12.147ZM73.8537 6.86927C74.1674 6.6552 74.4021 6.37427 74.5274 6.03832C74.7592 5.41647 74.7526 4.7953 74.4093 4.19917C74.2256 3.88002 73.9648 3.62183 73.6239 3.45919C73.1955 3.25494 72.7303 3.16613 72.245 3.16754C70.9852 3.17119 69.7253 3.16843 68.4655 3.16846C68.2472 3.16846 68.2294 3.18436 68.2294 3.38545C68.2291 4.62841 68.2291 5.87138 68.2298 7.11435C68.2298 7.34647 68.2541 7.36839 68.503 7.36845C69.5218 7.36872 70.541 7.3736 71.5596 7.36574C71.909 7.36304 72.2592 7.33953 72.6067 7.30484C73.0512 7.26048 73.4812 7.16414 73.8537 6.86927Z" fill="#800000"/>
<path d="M32.6119 7.81099C32.6783 7.60153 32.7273 7.39829 32.796 7.20099C32.8578 7.02305 32.9429 6.85218 33.0139 6.67695C33.033 6.63047 33.0356 6.57846 33.0518 6.53063C33.0751 6.45984 33.1037 6.39052 33.13 6.32049C33.1474 6.27361 33.1639 6.22643 33.1819 6.17967C33.2135 6.09682 33.2464 6.01429 33.2776 5.93134C33.2904 5.89825 33.3 5.86423 33.3125 5.83102C33.3463 5.73858 33.3828 5.64685 33.4147 5.55374C33.4295 5.51088 33.4312 5.46416 33.4463 5.42142C33.4722 5.34701 33.5045 5.27462 33.5327 5.20085C33.5489 5.1587 33.5607 5.1151 33.5765 5.07283C33.6074 4.98985 33.6396 4.90727 33.6721 4.82475C33.6758 4.81541 33.6866 4.8082 33.6892 4.79883C33.7405 4.61719 33.7839 4.43314 33.8444 4.25419C33.9066 4.06972 33.9851 3.89006 34.0575 3.70857C34.0631 3.69454 34.0792 3.6837 34.0831 3.66961C34.1357 3.4821 34.1798 3.292 34.2416 3.10716C34.3017 2.92689 34.38 2.75181 34.451 2.5748C34.4586 2.55601 34.4773 2.5406 34.4829 2.52163C34.5355 2.3335 34.5776 2.14227 34.6404 1.95728C34.7022 1.77643 34.7857 1.60208 34.8577 1.42424C34.8728 1.38672 34.8787 1.34598 34.8922 1.30773C34.9218 1.22312 34.955 1.13953 34.9839 1.05474C35.0004 1.00715 35.0093 0.957297 35.0254 0.909712C35.0497 0.838919 35.0767 0.768955 35.1043 0.699144C35.1191 0.661721 35.1385 0.625956 35.1529 0.588472C35.2075 0.448236 35.2456 0.300079 35.3209 0.170619C35.3541 0.113886 35.4616 0.0640912 35.5356 0.0636921C36.779 0.0572144 38.0228 0.0579515 39.2662 0.0602233C39.4621 0.060561 39.5072 0.158646 39.4181 0.318683C39.3497 0.441727 39.3115 0.579477 39.2586 0.710196C39.1771 0.911309 39.0923 1.11126 39.0127 1.31314C38.9591 1.4495 38.9167 1.58974 38.8624 1.72574C38.7842 1.92041 38.6954 2.11139 38.6192 2.30667C38.561 2.45615 38.5209 2.61188 38.462 2.76105C38.3923 2.93693 38.3101 3.10842 38.2355 3.28258C38.2197 3.31933 38.2154 3.36028 38.201 3.39764C38.1727 3.47055 38.1415 3.54251 38.1102 3.61444C38.1 3.63747 38.0842 3.65828 38.0747 3.68146C37.9919 3.88494 37.9051 4.08706 37.8294 4.29287C37.7696 4.45669 37.7279 4.6263 37.67 4.79101C37.6203 4.93351 37.5635 5.07421 37.5023 5.21294C37.4346 5.36764 37.3554 5.51807 37.287 5.67251C37.2426 5.77269 37.2054 5.87599 37.1699 5.9793C37.1157 6.13611 37.0726 6.29655 37.0121 6.45109C36.9477 6.6161 36.8681 6.77598 36.7955 6.93835C36.781 6.97062 36.7698 7.00405 36.7563 7.03675C36.6784 7.22647 36.5992 7.41579 36.5226 7.60598C36.4759 7.72184 36.4309 7.8384 36.3888 7.9558C36.3326 8.11178 36.2862 8.27096 36.2244 8.42492C36.1563 8.5953 36.0758 8.76142 36.0002 8.92922C35.9939 8.94307 35.9808 8.95461 35.9765 8.9687C35.9252 9.13525 35.8858 9.30579 35.8216 9.46779C35.7595 9.62479 35.6704 9.7723 35.5971 9.9257C35.58 9.96147 35.5839 10.0056 35.5705 10.0434C35.5455 10.1128 35.5152 10.1806 35.4863 10.2487C35.4725 10.2811 35.4554 10.3124 35.4422 10.345C35.3633 10.5408 35.2811 10.7357 35.2078 10.9334C35.147 11.0971 35.0987 11.2649 35.0408 11.4296C34.9912 11.5718 34.9366 11.7126 34.8823 11.8534C34.8038 12.0561 34.7272 12.2596 34.6427 12.4603C34.5753 12.6208 34.4921 12.7756 34.4263 12.9366C34.3622 13.0934 34.3123 13.2551 34.2541 13.4141C34.1988 13.5651 34.1426 13.7159 34.0841 13.8659C34.0098 14.057 33.9338 14.2478 33.8563 14.4378C33.7987 14.5789 33.7376 14.7186 33.6695 14.8787C33.4535 14.7281 33.2096 14.5859 33.0024 14.4065C32.721 14.1627 32.4409 13.9093 32.2104 13.6247C32.0109 13.3782 31.8738 13.0857 31.7229 12.8072C31.6321 12.6403 31.5677 12.4612 31.4914 12.2876C31.4894 12.2829 31.4861 12.2776 31.4868 12.273C31.5259 11.9818 31.3609 11.7195 31.3517 11.437C31.3487 11.3478 31.4026 11.2571 31.4299 11.167C31.4447 11.1188 31.4566 11.0698 31.4737 11.0224C31.499 10.9521 31.5269 10.8826 31.5562 10.8136C31.5637 10.7951 31.5854 10.781 31.5907 10.7624C31.6423 10.5791 31.6837 10.3929 31.7442 10.2122C31.806 10.0268 31.8866 9.84687 31.9569 9.66384C32.0151 9.51298 32.071 9.36138 32.1259 9.20957C32.2098 8.97877 32.2972 8.74889 32.3735 8.51591C32.4327 8.33531 32.4751 8.14998 32.53 7.96802C32.5454 7.91632 32.578 7.86907 32.6119 7.81099Z" fill="#FEC601"/>
</svg>
