<svg width="15" height="16" viewBox="0 0 15 16" fill="none" xmlns="http://www.w3.org/2000/svg">
<path d="M2.4649 13.1965C3.19607 14.0769 4.55602 14.0769 7.27716 14.0769H7.71586C10.437 14.0769 11.7976 14.0769 12.5287 13.1965M2.4649 13.1965C1.73374 12.3154 1.98478 10.9786 2.48623 8.30381C2.84267 6.40279 3.02059 5.45168 3.69752 4.8899M12.5287 13.1965C13.2599 12.3154 13.0089 10.9786 12.5074 8.30381C12.151 6.40279 11.9724 5.45168 11.2955 4.8899M11.2955 4.8899C10.6192 4.32812 9.65099 4.32812 7.71647 4.32812H7.27655C5.34202 4.32812 4.37445 4.32812 3.69752 4.8899" stroke="white" stroke-width="0.812401"/>
<path d="M5.67188 4.32783V3.71853C5.67188 3.23374 5.86446 2.7688 6.20725 2.42601C6.55005 2.08321 7.01499 1.89063 7.49978 1.89062C7.98457 1.89063 8.4495 2.08321 8.7923 2.42601C9.1351 2.7688 9.32768 3.23374 9.32768 3.71853V4.32783" stroke="white" stroke-width="0.812401" stroke-linecap="round"/>
</svg>
