<svg width="32" height="25" viewBox="0 0 32 25" fill="none" xmlns="http://www.w3.org/2000/svg">
<circle cx="15.9329" cy="12.4095" r="12.1454" stroke="#7F6301" stroke-width="0.528063"/>
<circle cx="16.0173" cy="12.4978" r="9.85717" stroke="#7F6301" stroke-width="0.528063" stroke-dasharray="3.52 3.52"/>
<g clip-path="url(#clip0_454_17648)">
<rect y="11.7969" width="30.8037" height="8.80105" transform="rotate(-13.2182 0 11.7969)" fill="white"/>
<path d="M7.53738 16.5396C7.31058 16.5929 7.08896 16.6003 6.87252 16.5618C6.65607 16.5233 6.45636 16.4474 6.27338 16.334C6.0897 16.2176 5.93243 16.0711 5.8016 15.8944C5.67307 15.714 5.58217 15.5104 5.5289 15.2836C5.47563 15.0568 5.46674 14.8355 5.50221 14.6198C5.54072 14.4033 5.61514 14.204 5.72549 14.0217C5.83815 13.8357 5.98166 13.6792 6.15601 13.5521C6.33268 13.4212 6.53441 13.3292 6.76121 13.2759C6.98801 13.2226 7.20812 13.2156 7.42154 13.2548C7.63727 13.2903 7.83698 13.3662 8.02067 13.4826C8.20365 13.596 8.3594 13.7429 8.48792 13.9233C8.61876 14.1 8.71082 14.3017 8.76409 14.5285C8.81736 14.7553 8.8251 14.9784 8.7873 15.1979C8.75183 15.4136 8.6774 15.613 8.56403 15.7959C8.45368 15.9782 8.31018 16.1348 8.13351 16.2656C7.95986 16.3957 7.76115 16.4871 7.53738 16.5396ZM7.41111 16.0428C7.62581 15.9924 7.80193 15.9 7.93948 15.7656C8.08004 15.6304 8.17579 15.4675 8.22674 15.2769C8.27999 15.0825 8.28034 14.8734 8.22778 14.6497C8.18872 14.4833 8.12599 14.3385 8.03959 14.2152C7.95551 14.0882 7.85337 13.9862 7.73317 13.9091C7.61225 13.829 7.47887 13.7774 7.33303 13.7542C7.19022 13.7303 7.03868 13.7372 6.87841 13.7749C6.66673 13.8246 6.49061 13.917 6.35004 14.0521C6.21179 14.1835 6.11568 14.3449 6.06172 14.5362C6.01077 14.7269 6.01158 14.9341 6.06414 15.1579C6.10321 15.3242 6.16513 15.4724 6.24992 15.6024C6.33703 15.7287 6.43917 15.8308 6.55635 15.9086C6.67656 15.9856 6.80994 16.0372 6.95649 16.0634C7.10232 16.0866 7.25387 16.0798 7.41111 16.0428ZM9.70935 14.5601L9.60813 14.1292L10.411 13.9406C10.5713 13.903 10.6857 13.833 10.7542 13.7308C10.825 13.6248 10.843 13.4977 10.8082 13.3496C10.777 13.2165 10.7068 13.1149 10.5978 13.0448C10.4888 12.9747 10.3542 12.9584 10.1939 12.9961L9.38653 13.1857L9.27999 12.7321L10.1101 12.5372C10.3096 12.4903 10.4946 12.4899 10.665 12.5361C10.8347 12.5792 10.9767 12.6607 11.091 12.7806C11.2076 12.8968 11.2865 13.0426 11.3277 13.218C11.371 13.4024 11.3664 13.5726 11.3136 13.7286C11.264 13.8839 11.1724 14.0171 11.039 14.1282C10.9055 14.2393 10.739 14.3183 10.5394 14.3652L9.70935 14.5601ZM9.66744 15.9915L8.92165 12.8163L9.44328 12.6938L10.1891 15.8689L9.66744 15.9915ZM11.4092 15.5823L9.97405 14.4644L10.4178 14.1735L12.0669 15.4279L11.4092 15.5823ZM12.4537 15.337L11.7079 12.1619L12.2295 12.0393L12.9753 15.2145L12.4537 15.337ZM15.107 14.7617C14.8892 14.8128 14.6737 14.8188 14.4602 14.7796C14.2468 14.7404 14.0501 14.6637 13.8702 14.5496C13.6895 14.4325 13.5338 14.2856 13.4029 14.109C13.2744 13.9286 13.1835 13.725 13.1302 13.4982C13.077 13.2714 13.0681 13.0501 13.1036 12.8344C13.1421 12.6179 13.2165 12.4186 13.3268 12.2363C13.4395 12.0503 13.5845 11.8934 13.7619 11.7656C13.9416 11.634 14.1463 11.5413 14.3762 11.4873C14.6271 11.4283 14.8714 11.422 15.1088 11.4684C15.3462 11.5147 15.5585 11.61 15.7455 11.7543L15.4748 12.1912C15.3498 12.0802 15.2005 12.0084 15.0269 11.9758C14.8527 11.9401 14.6748 11.9436 14.4934 11.9862C14.2756 12.0374 14.095 12.1309 13.9514 12.2667C13.8101 12.3988 13.714 12.5602 13.6631 12.7508C13.6121 12.9415 13.6129 13.1487 13.6655 13.3724C13.718 13.5962 13.8099 13.7836 13.9411 13.9347C14.0746 14.082 14.2314 14.1856 14.4114 14.2454C14.5913 14.3053 14.7811 14.3117 14.9807 14.2649C15.1924 14.2151 15.3649 14.1347 15.4984 14.0236C15.6341 13.9088 15.7251 13.7661 15.7712 13.5958C15.8166 13.4224 15.8131 13.2238 15.7605 13L16.1425 13.1592L14.7862 13.4777L14.6744 13.0015L16.2438 12.6328L16.2609 12.7054C16.3496 13.0834 16.3555 13.4139 16.2783 13.6968C16.2042 13.9791 16.0653 14.2095 15.8616 14.3882C15.6579 14.5669 15.4063 14.6914 15.107 14.7617ZM17.1668 14.23L16.421 11.0548L16.9426 10.9323L17.6884 14.1075L17.1668 14.23ZM18.3761 13.946L17.6303 10.7708L17.9932 10.6856L18.2926 11.247L18.8977 13.8234L18.3761 13.946ZM20.576 13.4292L18.0927 11.3945L17.9932 10.6856L20.4765 12.7203L20.576 13.4292ZM20.576 13.4292L20.2862 12.9086L19.6715 10.2914L20.1931 10.1688L20.9389 13.344L20.576 13.4292ZM21.3915 13.2377L21.9521 9.75568L22.315 9.67045L24.358 12.5409L23.7956 12.673L22.1755 10.3398L22.366 10.295L21.9449 13.1077L21.3915 13.2377ZM21.8918 12.474L21.7853 12.0204L23.4681 11.6252L23.5747 12.0788L21.8918 12.474ZM24.7769 12.4425L24.0311 9.26736L24.5527 9.14484L25.2985 12.32L24.7769 12.4425ZM25.1352 12.3583L25.0233 11.8821L26.6835 11.4921L26.7954 11.9684L25.1352 12.3583Z" fill="#7F6301"/>
</g>
<rect x="0.31741" y="11.9935" width="30.2756" height="8.27298" transform="rotate(-13.2182 0.31741 11.9935)" stroke="#7F6301" stroke-width="0.528063"/>
<defs>
<clipPath id="clip0_454_17648">
<rect y="11.7969" width="30.8037" height="8.80105" transform="rotate(-13.2182 0 11.7969)" fill="white"/>
</clipPath>
</defs>
</svg>
