<svg width="19" height="32" viewBox="0 0 19 32" fill="none" xmlns="http://www.w3.org/2000/svg">
<g clip-path="url(#clip0_454_17632)">
<path fill-rule="evenodd" clip-rule="evenodd" d="M13.9108 3.8301C14.0791 3.65913 14.3541 3.65693 14.525 3.82519L17.4438 6.69771C17.6148 6.86598 17.617 7.14095 17.4487 7.31193L14.5762 10.2307C14.408 10.4017 14.1329 10.4039 13.962 10.2356C13.791 10.0673 13.7888 9.79236 13.9571 9.62138L16.5249 7.01218L13.9157 4.44436C13.7447 4.27609 13.7425 4.00108 13.9108 3.8301Z" fill="#403200"/>
<path d="M8.11255 6.6023C7.13802 6.61009 5.6947 6.78367 4.47567 7.29236C3.21762 7.81734 2.25134 8.67944 2.26173 9.97923C2.26364 10.2191 2.5222 10.5052 2.94558 10.5019C3.36896 10.4985 3.52891 10.1626 3.52699 9.92272C3.51887 8.90601 4.24466 8.30668 5.10914 7.94597C6.01264 7.56895 7.39038 7.47681 8.11949 7.47099L16.4903 7.40411L17.2535 6.96364L16.4834 6.53542L8.11255 6.6023Z" fill="#403200"/>
</g>
<g clip-path="url(#clip1_454_17632)">
<path fill-rule="evenodd" clip-rule="evenodd" d="M4.80404 28.166C4.63579 28.337 4.36077 28.3392 4.1898 28.1709L1.27103 25.2984C1.10006 25.1301 1.09786 24.8551 1.26613 24.6842L4.13862 21.7654C4.30689 21.5944 4.5819 21.5922 4.75286 21.7605C4.92384 21.9288 4.92604 22.2037 4.75777 22.3747L2.18996 24.9839L4.79913 27.5517C4.97011 27.72 4.97231 27.995 4.80404 28.166Z" fill="#403200"/>
<path d="M10.6179 25.3977C11.5924 25.3899 13.0358 25.2163 14.2548 24.7076C15.5129 24.1827 16.4791 23.3206 16.4687 22.0208C16.4668 21.7809 16.2083 21.4948 15.7849 21.4981C15.3615 21.5015 15.2016 21.8374 15.2035 22.0773C15.2116 23.094 14.4858 23.6933 13.6213 24.054C12.7178 24.431 11.3401 24.5232 10.611 24.529L2.24015 24.5959L1.477 25.0364L2.24709 25.4646L10.6179 25.3977Z" fill="#403200"/>
</g>
<path d="M6.31392 20.002V13.6267H6.9811V20.002H6.31392ZM4.97031 14.229V13.6267H6.88843V14.229H4.97031ZM8.11984 17.8892L10.5013 13.6267H11.2611L8.84261 17.8892H8.11984ZM8.11984 18.3155V17.8892L8.4071 17.7039H12.9476V18.3155H8.11984ZM11.3353 20.002V15.7487H12.0024V20.002H11.3353Z" fill="#403200"/>
<defs>
<clipPath id="clip0_454_17632">
<rect width="13.8995" height="18.586" fill="white" transform="translate(18.5859) rotate(89.5422)"/>
</clipPath>
<clipPath id="clip1_454_17632">
<rect width="13.8995" height="18.586" fill="white" transform="translate(0.117188 31.998) rotate(-90.4578)"/>
</clipPath>
</defs>
</svg>
